{"glyphs":{"0":{"ha":710,"x_min":144,"x_max":792,"o":"m 564 924 q 593 924 568 926 q 656 914 626 924 q 760 824 728 890 q 785 722 778 786 q 782 613 792 668 q 715 324 768 482 q 588 88 667 178 q 375 -29 500 -17 q 200 29 265 -42 q 175 65 185 46 q 146 199 147 119 q 182 447 144 293 q 315 768 235 654 q 421 872 364 835 q 564 924 490 917 m 599 856 q 547 857 576 863 q 431 779 476 843 q 418 757 424 768 q 326 450 389 697 q 281 250 296 324 q 267 146 267 183 q 269 108 267 119 q 307 53 282 72 q 435 56 360 13 q 522 157 494 90 q 614 475 553 226 q 668 783 679 733 q 633 838 658 819 q 599 856 618 851 z "},"1":{"ha":710,"x_min":146,"x_max":658,"o":"m 624 924 l 636 925 l 638 925 q 657 915 653 925 q 557 500 658 910 q 453 88 453 89 q 472 81 451 83 q 540 78 493 79 q 599 68 594 78 q 594 36 601 64 q 583 4 586 7 l 579 0 l 557 0 q 200 1 404 7 q 147 10 153 0 q 151 42 146 14 q 163 74 160 69 l 168 78 l 221 78 q 319 89 306 79 q 401 403 325 92 l 479 714 l 461 704 q 340 669 400 674 q 307 678 314 667 l 306 682 l 311 707 q 326 744 319 740 q 350 747 328 744 q 457 778 401 751 q 613 911 547 824 q 624 924 617 917 z "},"2":{"ha":710,"x_min":97,"x_max":764,"o":"m 517 924 l 553 925 l 554 925 q 643 904 601 924 q 736 811 704 874 q 764 688 764 757 q 757 618 764 651 q 694 488 743 549 q 629 421 679 467 q 468 311 568 372 q 408 275 435 293 q 263 149 328 228 q 268 136 264 138 q 382 119 294 136 q 535 103 499 97 q 638 183 597 113 q 654 219 647 201 q 667 239 660 238 q 696 240 671 240 l 726 240 l 731 236 q 735 226 735 232 q 715 168 732 211 q 551 -19 657 21 q 528 -26 539 -24 q 492 -29 517 -29 q 454 -26 467 -29 q 361 19 415 -17 q 249 71 290 65 q 204 53 221 75 q 181 -6 194 39 q 167 -29 174 -28 q 136 -31 161 -31 l 107 -31 l 103 -26 q 104 3 97 -19 q 315 299 154 178 q 375 339 344 321 q 590 550 533 433 q 624 663 607 585 q 633 747 633 710 q 622 810 633 786 q 564 857 604 846 q 510 857 543 863 q 465 842 481 850 q 358 740 404 813 q 315 658 339 713 q 300 533 272 553 q 329 536 308 528 q 404 626 375 551 q 407 633 406 631 q 411 719 428 688 q 407 740 403 733 q 447 772 422 756 q 463 768 456 778 q 478 736 471 758 q 469 621 494 689 q 344 476 426 508 q 329 471 338 474 q 279 468 303 464 q 215 542 225 481 q 218 599 211 569 q 278 743 233 671 q 482 915 357 879 q 517 924 500 921 z "},"3":{"ha":710,"x_min":129,"x_max":779,"o":"m 549 922 q 581 925 565 925 q 713 882 660 925 q 761 821 740 860 q 779 735 779 781 q 747 611 779 675 q 601 463 699 515 l 589 456 l 593 453 q 628 418 611 442 q 654 367 644 393 q 663 340 656 364 q 665 254 671 300 q 569 75 650 153 q 342 -29 472 -19 q 317 -31 329 -31 q 228 -11 271 -31 q 179 24 199 4 q 135 111 147 58 q 135 185 129 142 q 164 246 142 224 q 247 271 201 283 q 282 242 272 263 q 276 175 297 213 q 222 131 260 140 l 213 126 l 215 117 q 285 42 231 60 q 382 44 326 26 q 488 138 453 65 q 515 225 500 165 q 529 390 549 353 q 519 404 525 397 q 490 422 508 415 q 435 426 482 425 l 388 428 l 385 431 q 381 436 383 432 q 394 496 381 450 q 418 504 397 504 q 447 504 425 504 q 529 513 504 504 q 610 574 578 529 q 649 681 631 606 q 664 772 664 739 q 643 835 664 813 q 604 856 625 850 q 539 857 579 863 q 446 817 489 846 q 388 758 411 793 q 356 665 356 711 q 374 638 356 636 q 418 669 401 640 q 421 689 421 678 q 410 721 421 706 q 407 740 403 735 q 447 772 422 756 q 464 767 454 776 q 485 724 479 749 q 486 675 492 700 q 411 583 471 613 q 367 572 389 574 q 282 636 299 569 q 279 668 279 644 q 282 704 279 690 q 329 799 297 757 q 389 857 356 833 q 549 922 463 914 z "},"4":{"ha":710,"x_min":67,"x_max":672,"o":"m 599 922 q 619 925 613 925 q 664 899 651 924 q 663 844 672 882 q 657 825 661 838 q 543 526 617 671 q 482 413 519 476 q 269 138 390 258 l 244 111 l 257 111 q 394 78 308 111 q 417 71 417 68 q 444 179 419 74 q 482 307 474 296 q 489 314 485 310 q 550 335 517 339 q 579 322 569 332 q 594 282 597 307 q 564 157 592 276 l 533 39 l 544 39 q 597 46 572 39 q 621 49 617 50 q 640 26 625 46 q 653 -8 661 -1 q 629 -18 647 -12 q 526 -39 569 -39 l 514 -39 l 492 -129 q 464 -229 471 -211 q 397 -269 443 -269 q 350 -242 363 -268 q 354 -181 343 -226 q 372 -110 358 -162 l 397 -10 q 369 1 397 -8 q 265 32 304 28 q 171 31 224 38 q 131 14 147 26 q 107 0 113 0 q 82 25 100 0 q 67 49 67 43 q 99 86 67 65 q 104 89 101 88 q 181 154 125 99 q 489 679 379 353 q 542 857 515 756 q 599 922 556 908 z "},"5":{"ha":710,"x_min":146,"x_max":788,"o":"m 381 922 q 406 917 386 926 q 503 886 456 894 q 757 919 626 867 q 776 925 774 925 q 788 913 785 925 l 774 865 l 774 864 q 719 822 764 851 q 622 772 675 792 q 522 747 571 753 q 435 747 483 742 q 415 750 417 750 q 385 644 413 750 l 358 536 q 372 543 358 535 q 460 579 411 568 q 539 581 494 586 q 647 513 607 565 q 678 450 667 483 q 674 258 706 364 q 504 32 631 115 q 364 -26 438 -14 q 294 -29 325 -35 q 194 18 233 -22 q 164 63 176 39 q 146 158 146 103 q 181 261 147 231 q 215 283 196 276 q 267 288 240 293 q 304 256 294 279 q 304 199 317 231 q 281 161 296 176 q 238 138 261 143 q 226 135 228 135 l 228 126 l 228 125 q 292 50 240 68 q 428 78 358 26 q 474 125 456 97 q 532 282 504 171 q 560 435 560 389 q 550 482 560 463 q 506 517 536 513 q 458 514 481 519 q 397 489 424 507 q 328 425 357 463 q 314 410 317 411 q 288 408 313 408 q 253 418 258 408 l 251 424 l 311 667 q 375 915 375 917 q 381 922 378 922 z "},"6":{"ha":710,"x_min":164,"x_max":790,"o":"m 631 924 l 679 924 q 763 881 738 915 q 781 843 775 864 q 785 821 785 826 q 772 742 790 776 q 697 689 750 694 q 636 721 653 685 q 631 743 632 728 q 640 786 631 767 q 693 831 656 819 l 697 833 l 692 839 q 588 844 658 872 q 540 821 563 836 q 401 625 451 763 q 399 617 400 621 q 375 539 375 546 q 386 547 375 536 q 496 607 435 592 q 569 607 526 613 q 674 524 636 593 q 679 514 676 519 q 708 404 707 461 q 693 288 710 354 q 569 72 660 160 q 564 67 567 69 q 469 -3 514 18 q 379 -29 422 -25 q 315 -28 336 -32 q 226 22 263 -15 q 169 158 183 67 q 168 276 164 201 q 169 288 169 283 q 208 478 183 389 q 415 818 267 685 q 456 851 435 836 q 631 924 546 917 m 524 543 l 486 543 q 415 507 450 539 q 308 275 347 442 q 283 135 283 163 q 338 47 283 69 q 365 44 344 44 q 417 53 394 44 q 479 103 453 67 q 547 306 504 138 q 581 468 579 436 q 578 494 581 485 q 524 543 565 535 z "},"7":{"ha":710,"x_min":182,"x_max":890,"o":"m 336 922 q 368 925 339 925 q 401 924 399 925 q 408 911 408 919 l 400 890 q 394 875 392 874 q 501 921 443 907 q 540 924 515 924 q 569 921 563 924 q 606 876 594 910 q 613 840 611 854 q 632 786 621 797 q 669 781 643 776 q 738 825 701 789 q 799 900 758 846 q 818 924 813 921 q 850 925 819 925 l 879 925 l 883 921 q 879 894 890 914 q 861 868 874 888 q 654 478 742 688 q 518 65 579 300 q 486 -3 506 18 q 464 -19 475 -15 q 388 -22 422 -40 q 365 3 374 -15 q 360 25 361 8 q 364 57 360 39 q 671 710 439 347 l 676 718 l 667 715 q 594 733 622 708 q 571 758 590 736 q 525 793 544 792 q 510 793 519 793 q 428 771 465 789 q 272 622 333 725 q 264 606 268 614 q 254 589 257 592 q 221 586 251 586 q 189 588 189 586 q 182 599 185 588 q 321 893 182 610 q 336 922 335 921 z "},"8":{"ha":710,"x_min":136,"x_max":771,"o":"m 561 924 l 622 922 q 703 888 671 913 q 742 844 729 869 q 767 739 771 796 q 596 510 754 603 l 581 500 l 604 481 q 667 406 650 442 q 658 178 719 303 q 631 129 646 153 q 511 17 583 60 q 361 -31 438 -26 q 240 -4 294 -32 q 156 81 183 24 q 138 174 136 124 q 185 315 139 244 q 347 458 242 401 q 364 468 361 465 q 360 475 367 471 q 319 517 333 496 q 293 583 300 546 q 290 658 285 617 q 339 783 300 721 q 443 883 382 844 q 547 922 493 913 q 561 924 553 924 m 600 853 q 557 856 586 856 l 544 853 q 447 800 492 844 q 403 676 390 742 q 422 638 408 654 l 531 543 q 546 551 532 543 q 660 694 632 613 q 661 796 679 750 q 600 853 644 839 m 475 376 l 417 425 q 403 418 414 425 q 254 239 290 349 q 243 188 246 213 q 294 63 235 103 q 329 47 310 53 q 396 46 354 40 q 539 142 485 64 q 561 288 590 218 q 538 322 553 307 l 475 376 z "},"9":{"ha":710,"x_min":139,"x_max":782,"o":"m 558 924 l 592 925 l 593 925 q 657 911 629 924 q 750 804 725 883 q 758 572 782 711 q 724 415 746 488 q 569 124 676 249 q 497 51 535 83 q 353 -24 421 -7 q 196 -4 261 -47 q 172 17 182 6 q 153 56 160 33 q 158 149 139 100 q 161 156 160 153 q 236 206 185 201 q 297 174 281 208 q 303 151 301 167 q 293 108 303 128 q 254 69 281 82 l 243 64 l 249 60 q 308 44 268 44 q 343 47 332 44 q 482 158 424 69 q 519 233 503 192 q 551 333 539 283 l 560 358 l 551 353 q 485 306 522 324 q 372 289 431 278 q 253 385 293 299 q 236 592 210 476 q 240 607 239 599 q 349 807 269 724 q 558 924 453 911 m 603 851 q 560 854 588 857 q 458 797 501 849 q 422 718 439 772 q 358 468 386 610 q 357 460 358 464 q 356 404 351 417 q 403 354 368 364 q 461 356 432 349 q 604 547 551 381 q 635 667 615 576 q 651 765 651 739 q 642 815 651 794 q 603 851 629 843 z "}," ":{"ha":91019,"x_min":0,"x_max":0,"o":""},"!":{"ha":426,"x_min":143,"x_max":533,"o":"m 439 993 q 496 986 474 999 q 531 946 522 974 q 533 922 533 938 l 532 908 l 429 601 q 325 293 325 294 q 289 286 314 286 q 250 294 253 286 q 299 604 249 299 q 351 918 349 907 q 428 990 367 969 q 439 993 433 992 m 235 179 q 281 178 256 186 q 314 154 306 168 q 329 114 326 138 q 322 74 329 92 q 261 10 306 32 q 167 18 206 -17 q 150 39 156 26 q 143 76 143 56 q 149 104 144 96 q 211 171 167 150 q 235 179 225 179 z "},"\"":{"ha":714,"x_min":244,"x_max":778,"o":"m 392 963 q 426 961 411 965 q 488 853 490 946 q 444 706 485 786 q 307 531 399 610 q 274 514 283 511 l 246 551 q 258 569 244 557 q 404 772 365 654 l 411 790 l 400 786 q 314 803 347 771 q 306 897 279 840 q 392 963 332 954 m 679 963 q 714 961 699 965 q 775 853 778 946 q 732 706 772 786 q 594 531 686 610 q 561 514 571 511 l 533 551 q 546 569 532 557 q 692 772 653 654 l 699 790 l 688 786 q 601 803 635 771 q 593 897 567 840 q 679 963 619 954 z "},"#":{"ha":1136,"x_min":153,"x_max":1157,"o":"m 792 961 q 803 964 797 964 q 822 954 815 964 q 829 931 832 947 q 738 743 829 926 l 635 535 l 622 510 l 738 510 l 853 510 l 961 731 l 1074 956 q 1113 957 1092 974 q 1121 943 1118 951 q 1121 931 1122 936 q 1017 718 1121 926 l 914 511 l 1022 510 l 1131 510 l 1136 506 q 1147 471 1157 493 q 1135 458 1144 463 l 1128 454 l 1006 454 l 885 454 l 832 347 q 779 240 779 242 l 919 240 q 1074 233 1065 240 q 1074 192 1092 215 q 1008 185 1065 185 q 904 185 985 185 l 750 185 l 640 -36 l 528 -261 q 489 -262 510 -279 q 481 -249 483 -257 q 481 -236 479 -242 q 572 -49 481 -232 l 675 160 l 688 185 l 572 185 l 458 185 l 349 -36 l 236 -261 q 197 -262 218 -279 q 189 -249 192 -257 q 189 -236 188 -242 q 293 -24 189 -232 l 396 185 l 288 185 l 181 186 l 174 189 q 163 224 153 201 q 175 236 165 232 l 182 240 l 304 240 l 425 240 l 478 347 q 531 454 531 453 l 390 454 q 244 457 249 454 q 229 490 221 465 q 244 507 233 501 q 406 510 249 510 l 561 510 l 669 731 l 782 956 q 792 961 786 958 m 822 454 l 707 454 l 593 454 l 540 347 q 488 240 488 242 l 603 240 l 717 240 l 769 347 q 822 454 822 453 z "},"$":{"ha":1068,"x_min":115,"x_max":974,"o":"m 788 997 l 817 999 l 818 999 q 853 994 846 996 q 897 975 881 986 q 972 803 974 925 q 967 750 971 776 q 936 676 960 700 q 874 650 911 650 q 817 682 832 650 q 814 726 808 700 q 833 764 822 749 q 886 794 853 788 l 894 796 l 894 813 q 879 886 894 857 q 829 931 863 921 q 778 931 808 936 q 657 804 694 907 q 613 638 643 763 q 583 524 585 525 q 642 521 583 521 l 699 521 l 703 517 q 700 476 708 511 q 689 446 693 449 l 686 443 l 625 443 l 564 443 l 563 438 l 536 329 l 506 214 q 482 160 500 196 q 474 144 474 146 l 563 97 q 665 74 618 74 q 694 76 686 74 q 776 167 746 94 q 782 182 779 174 q 796 204 789 203 q 824 206 800 206 q 863 197 858 206 q 860 179 864 192 q 821 99 847 133 q 660 -11 758 11 q 579 -12 625 -18 q 436 46 521 -1 q 404 63 407 63 l 393 54 q 256 -11 332 4 q 182 -11 211 -19 q 124 43 132 1 q 160 135 115 86 q 167 142 163 138 q 288 192 217 183 q 369 186 331 197 l 374 185 l 378 196 l 439 442 q 399 443 439 443 l 358 443 l 354 447 q 357 488 349 453 q 368 518 364 515 q 415 521 371 521 l 460 521 l 485 626 l 517 749 q 672 954 560 881 q 731 983 700 972 q 788 997 772 996 m 290 103 q 222 86 243 110 q 211 63 214 76 q 215 53 211 56 q 231 50 218 50 q 317 89 281 54 l 325 96 l 315 99 q 290 103 303 103 z "},"%":{"ha":1136,"x_min":199,"x_max":1179,"o":"m 531 1040 q 581 1038 556 1046 q 636 992 610 1026 q 800 896 697 913 q 885 896 833 890 q 1071 976 989 910 q 1114 1017 1093 993 q 1138 1039 1132 1038 q 1168 1032 1156 1047 q 1176 1013 1176 1026 q 1178 1006 1176 1008 q 1176 994 1179 1000 q 1133 949 1168 981 q 681 431 1119 938 q 242 -75 251 -69 q 217 -74 229 -82 q 206 -62 208 -71 q 204 -37 199 -50 q 589 410 213 -25 q 971 853 969 851 l 961 850 q 894 835 933 840 q 788 833 847 828 q 667 875 728 843 q 665 858 665 875 q 629 690 665 781 q 585 604 611 643 q 449 486 524 510 q 418 483 439 483 q 388 486 396 483 q 288 619 308 508 q 286 697 281 657 q 392 951 299 843 q 481 1022 433 999 q 531 1040 504 1036 m 556 972 q 479 938 521 990 q 472 929 475 933 q 414 765 447 894 q 389 581 378 618 q 424 547 400 549 q 513 618 463 546 q 586 829 571 707 q 588 903 592 863 q 586 908 586 906 q 556 972 578 963 m 951 479 q 1038 463 1000 490 q 1094 317 1090 422 q 1093 285 1094 301 q 997 22 1082 136 q 989 11 993 17 q 935 -43 968 -17 q 839 -78 888 -81 q 763 -42 793 -74 q 725 21 740 -19 q 731 222 697 107 q 763 303 743 264 q 839 411 793 365 l 871 442 q 951 479 914 471 m 979 415 q 943 410 961 419 q 896 363 921 399 q 840 196 872 328 q 818 18 806 56 q 821 11 819 15 q 844 -11 831 -7 q 936 53 885 -22 q 996 185 976 110 q 1010 372 1029 294 q 979 415 1001 408 z "},"&":{"ha":1065,"x_min":174,"x_max":1122,"o":"m 564 993 q 674 969 624 1001 q 711 928 700 950 q 729 786 749 867 q 704 736 724 756 q 640 708 679 708 q 607 717 622 708 q 586 794 564 739 q 590 806 588 800 q 647 851 608 842 q 656 856 653 853 q 646 889 658 861 q 614 921 635 911 q 563 928 593 933 q 471 843 507 913 q 467 835 468 839 q 424 701 451 801 l 407 628 l 421 635 q 533 657 488 667 q 593 597 578 646 q 596 538 601 571 q 544 439 585 479 q 479 399 514 407 q 369 422 429 385 l 361 428 q 344 372 357 424 q 315 207 314 258 q 364 92 319 135 q 542 35 424 35 q 918 303 836 35 q 926 332 922 317 q 943 436 942 385 q 906 586 944 525 l 897 599 l 874 583 q 803 528 826 551 q 761 457 765 490 q 761 444 760 444 q 772 453 763 443 q 815 478 792 472 q 888 449 865 489 q 890 404 894 428 q 846 347 879 367 q 807 336 829 338 q 710 372 749 333 q 693 396 700 382 q 682 446 682 418 q 700 508 683 474 q 747 572 717 540 q 842 647 774 599 l 892 682 q 978 774 942 719 l 1007 822 l 1006 824 q 979 839 996 824 q 976 915 953 869 q 1047 964 999 960 q 1085 956 1069 964 q 1110 886 1122 938 q 1038 731 1086 801 q 986 671 1014 700 l 965 649 l 969 643 q 1006 575 989 618 q 1021 513 1017 542 q 1021 424 1026 476 q 1021 417 1021 419 q 879 103 1000 221 q 529 -31 749 -31 q 282 43 381 -31 q 229 96 250 67 q 179 218 188 150 q 182 303 174 261 q 285 521 208 425 l 296 535 l 292 550 q 289 639 283 589 q 374 861 303 761 q 564 993 460 976 m 521 589 q 507 593 519 590 q 456 575 483 593 q 408 529 429 560 l 401 519 l 403 513 l 408 500 q 461 461 425 465 q 500 482 490 460 q 524 576 518 525 q 521 589 524 586 z "},"'":{"ha":426,"x_min":288,"x_max":533,"o":"m 435 963 q 469 961 454 965 q 531 853 533 946 q 488 706 528 786 q 339 522 435 597 q 317 514 325 510 l 289 551 q 301 569 288 557 q 447 772 408 654 l 454 790 l 443 786 q 357 803 390 771 q 349 897 322 840 q 435 963 375 954 z "},"(":{"ha":568,"x_min":174,"x_max":718,"o":"m 654 1036 l 663 1042 l 686 1042 l 710 1042 l 714 1038 q 718 1028 718 1033 q 704 1011 718 1024 q 639 946 667 975 q 358 396 453 739 q 297 81 311 228 q 296 -61 290 -1 q 369 -318 306 -210 q 376 -340 379 -335 q 343 -347 371 -347 l 321 -347 l 314 -342 q 260 -261 292 -318 q 199 -62 213 -174 q 235 360 174 119 q 515 908 324 696 q 649 1032 579 981 q 654 1036 651 1035 z "},")":{"ha":568,"x_min":24,"x_max":568,"o":"m 371 1040 q 397 1042 374 1042 l 421 1042 l 428 1036 q 482 956 450 1013 q 543 758 528 869 q 507 336 568 574 q 226 -214 418 -1 q 93 -337 163 -286 q 88 -342 90 -340 l 79 -347 l 56 -347 l 32 -347 l 28 -343 q 24 -333 24 -339 q 38 -317 24 -329 q 103 -250 79 -278 q 383 300 289 -44 q 444 614 429 465 q 446 757 451 694 q 372 1013 436 904 q 364 1028 364 1026 q 371 1040 364 1036 z "},"*":{"ha":710,"x_min":265,"x_max":819,"o":"m 600 1040 q 635 1038 624 1043 q 657 1007 654 1029 q 626 906 657 997 q 594 811 594 815 l 671 861 q 765 917 753 917 q 772 917 768 917 q 810 888 801 914 q 786 828 819 853 q 696 783 769 817 q 608 743 611 746 q 674 701 606 743 q 749 651 744 660 q 750 646 749 650 q 725 586 758 615 q 708 575 718 579 q 683 569 697 569 q 665 571 669 569 q 610 624 660 574 l 560 674 l 544 581 q 525 479 531 490 q 478 444 511 453 q 429 463 444 436 q 425 486 422 474 q 456 583 425 483 l 486 672 q 410 622 486 674 q 326 571 333 574 q 274 593 290 560 q 274 629 265 608 q 294 657 281 646 q 388 703 296 658 l 475 742 l 407 783 q 333 833 338 825 q 331 842 332 835 q 358 901 324 874 q 382 914 369 910 q 415 914 397 919 q 471 861 421 911 q 521 814 521 810 q 536 904 524 817 q 551 997 551 990 q 593 1038 560 1025 q 600 1040 596 1039 z "},"+":{"ha":1065,"x_min":193,"x_max":1046,"o":"m 707 769 q 731 771 719 776 q 747 747 747 764 l 656 378 q 839 375 656 375 q 1029 372 1024 375 q 1044 354 1040 365 q 1044 340 1046 347 q 1029 322 1040 329 q 832 319 1024 319 l 642 319 l 640 314 q 593 125 640 317 q 544 -65 553 -39 q 513 -78 535 -82 q 493 -51 493 -71 q 539 138 493 -43 l 585 319 l 400 319 q 211 322 215 319 q 194 340 199 329 q 194 354 193 347 q 211 372 199 365 q 407 375 215 375 l 599 375 l 646 565 q 697 761 693 754 q 707 769 700 768 z "},",":{"ha":426,"x_min":92,"x_max":346,"o":"m 233 179 q 307 161 278 190 q 326 122 322 147 q 293 -67 346 49 q 147 -257 244 -175 q 121 -268 129 -274 q 107 -251 117 -265 q 94 -225 92 -229 q 111 -207 96 -222 q 247 -11 210 -121 l 254 7 l 246 4 q 197 1 222 -4 q 164 17 176 6 q 143 81 139 40 q 208 171 153 144 q 233 179 221 176 z "},"-":{"ha":497,"x_min":115,"x_max":475,"o":"m 142 353 q 306 356 146 356 l 465 356 l 471 351 q 475 340 475 344 l 451 250 l 446 244 q 285 243 443 243 q 118 250 122 243 q 115 258 115 253 l 136 346 q 142 353 138 349 z "},".":{"ha":426,"x_min":126,"x_max":338,"o":"m 236 181 q 293 172 268 186 q 328 93 338 147 q 297 38 321 63 q 194 3 250 -12 q 164 21 178 8 q 151 113 126 56 q 207 169 169 150 q 236 181 224 178 z "},"/":{"ha":710,"x_min":25,"x_max":857,"o":"m 817 1039 q 853 1028 839 1049 q 856 1021 854 1025 q 856 1008 857 1014 l 76 -336 q 56 -347 68 -347 q 35 -337 42 -347 q 28 -314 25 -331 l 807 1031 q 817 1039 810 1035 z "},":":{"ha":426,"x_min":126,"x_max":442,"o":"m 340 597 q 397 589 372 603 q 432 510 442 564 q 401 454 425 479 q 299 419 354 404 q 268 438 282 425 q 256 529 231 472 q 311 586 274 567 q 340 597 328 594 m 236 181 q 293 172 268 186 q 328 93 338 147 q 297 38 321 63 q 194 3 250 -12 q 164 21 178 8 q 151 113 126 56 q 207 169 169 150 q 236 181 224 178 z "},";":{"ha":426,"x_min":93,"x_max":442,"o":"m 340 597 q 397 589 372 603 q 432 510 442 564 q 401 454 425 479 q 299 419 354 404 q 268 438 282 425 q 256 529 231 472 q 311 586 274 567 q 340 597 328 594 m 233 179 q 303 163 279 190 q 317 36 336 125 q 196 -206 290 -96 q 139 -264 183 -219 q 114 -261 125 -274 q 107 -251 111 -257 q 94 -226 93 -232 q 119 -197 94 -222 q 186 -117 158 -158 q 236 -15 218 -65 q 240 3 243 3 l 222 0 q 164 17 189 -1 q 143 81 139 40 q 208 171 153 144 q 233 179 221 176 z "},"<":{"ha":426,"x_min":67,"x_max":457,"o":"m 364 693 q 421 685 396 699 q 450 656 440 675 q 457 618 457 638 q 443 571 456 593 q 349 514 408 515 q 300 526 321 513 q 271 581 274 544 q 278 621 271 603 q 364 693 301 678 m 279 406 q 335 408 285 411 q 344 407 343 408 q 347 382 350 403 q 301 90 344 354 q 249 -224 250 -218 q 213 -275 239 -256 q 108 -293 160 -315 q 69 -251 79 -281 q 67 -228 67 -243 l 68 -212 l 171 93 q 275 401 275 400 q 279 406 278 404 z "},"=":{"ha":1065,"x_min":153,"x_max":1086,"o":"m 244 507 q 653 510 249 510 l 1057 510 l 1064 506 q 1076 472 1086 494 q 1064 458 1074 463 l 1057 454 l 653 454 q 244 457 250 454 q 229 490 221 465 q 244 507 233 501 m 175 236 l 182 240 l 586 240 q 996 238 990 240 q 1010 204 1017 228 q 996 188 1007 193 q 586 185 990 185 l 182 185 l 175 189 q 163 222 153 200 q 175 236 165 232 z "},">":{"ha":710,"x_min":114,"x_max":611,"o":"m 506 693 q 563 685 538 699 q 592 656 582 675 q 599 618 599 638 q 585 571 597 593 q 490 514 550 515 q 442 526 463 513 q 413 581 415 544 q 419 621 413 603 q 506 693 443 678 m 426 406 q 478 404 456 414 q 528 343 515 389 q 532 307 532 329 q 528 267 532 286 q 493 183 517 219 q 419 117 478 160 q 364 75 404 106 q 242 -26 261 -1 q 206 -168 186 -99 q 226 -206 213 -190 q 286 -235 251 -233 q 424 -174 358 -239 q 499 -67 469 -128 l 506 -51 l 497 -47 q 464 -19 472 -39 q 481 63 446 21 q 510 86 493 78 q 583 88 549 104 q 610 51 604 75 q 606 11 611 33 q 471 -219 569 -125 q 451 -236 461 -228 q 253 -297 353 -314 q 211 -285 231 -294 q 149 -232 172 -268 q 119 -157 126 -197 q 122 -75 114 -119 q 221 94 144 24 q 328 175 244 115 q 425 250 422 246 q 444 289 436 261 q 447 338 453 322 l 444 343 l 436 343 q 365 292 392 338 q 357 274 360 283 q 343 257 351 258 q 317 256 338 256 q 278 264 282 256 q 281 281 276 269 q 306 332 288 306 q 349 372 322 354 q 426 406 385 399 z "},"?":{"ha":710,"x_min":272,"x_max":769,"o":"m 574 993 q 650 988 617 999 q 735 926 706 971 q 764 851 757 892 q 761 769 769 814 q 663 600 739 671 q 556 519 639 579 q 458 444 461 449 q 439 407 447 433 q 436 357 431 372 l 439 351 l 447 351 q 518 403 492 357 q 526 421 524 411 q 540 438 532 436 q 567 439 546 439 q 606 431 601 439 q 603 414 607 425 q 578 364 596 386 q 558 342 569 353 q 428 286 501 285 q 364 331 382 289 q 353 388 353 351 q 356 428 353 415 q 390 511 367 475 q 464 579 406 535 q 519 621 478 590 q 642 721 622 694 q 678 863 697 793 q 657 900 671 885 q 597 929 632 928 q 460 868 525 933 q 385 761 414 822 l 378 746 l 386 742 q 419 714 411 733 q 403 632 438 674 q 374 608 390 617 q 300 607 335 590 q 274 643 279 619 q 278 685 272 660 q 413 913 314 819 q 432 931 422 922 q 574 993 499 982 m 376 179 q 422 178 397 186 q 456 154 447 168 q 471 114 468 138 q 464 74 471 92 q 403 10 447 32 q 308 18 347 -17 q 292 39 297 26 q 285 76 285 56 q 290 104 286 96 q 353 171 308 150 q 376 179 367 179 z "},"@":{"ha":1065,"x_min":207,"x_max":1100,"o":"m 735 978 q 824 975 790 982 q 975 910 908 963 q 1022 861 1006 882 q 1094 665 1085 778 q 1093 565 1100 624 q 1019 308 1079 433 q 999 271 1008 288 q 842 171 935 167 q 789 185 815 172 q 763 204 771 194 q 746 228 751 215 l 740 239 l 731 231 q 619 175 678 189 q 579 172 606 172 q 496 190 536 171 q 447 225 468 204 q 414 275 426 247 q 388 386 389 324 q 401 493 388 442 q 549 721 438 633 q 578 743 563 733 q 651 779 619 771 q 747 792 708 797 q 882 675 844 779 l 886 663 l 913 663 q 949 654 946 663 q 904 465 950 651 q 857 265 858 283 q 869 236 856 238 q 875 236 872 236 q 922 268 903 240 q 996 461 958 315 q 1017 614 1017 547 q 1015 668 1017 656 q 956 819 1003 757 q 728 911 872 929 q 563 847 646 900 q 349 600 425 758 q 338 575 343 588 q 293 286 272 419 q 426 78 317 136 q 497 54 460 61 q 733 72 581 39 q 874 115 794 86 l 890 122 l 933 122 q 985 114 981 122 q 985 104 986 108 q 965 92 983 100 q 657 -6 819 17 q 501 -14 568 -19 q 258 146 335 3 q 251 160 254 153 q 213 288 222 213 q 213 397 207 335 q 213 404 213 401 q 372 767 238 603 q 450 844 421 819 q 735 978 586 961 m 746 724 q 700 726 722 732 q 592 636 646 714 q 508 396 515 529 q 531 272 504 318 q 561 243 547 249 q 626 243 585 229 q 746 347 690 265 l 753 357 l 785 485 l 817 614 l 815 624 q 801 669 808 656 q 746 724 781 711 z "},"A":{"ha":1032,"x_min":81,"x_max":971,"o":"m 731 992 q 765 994 735 994 q 803 988 799 994 q 829 536 806 985 q 854 86 851 89 q 863 82 858 82 q 933 78 878 78 q 963 75 960 78 q 971 63 971 72 l 957 8 q 929 1 951 0 q 906 1 924 1 q 653 3 811 7 q 629 1 639 1 q 578 8 583 0 q 581 40 575 13 q 593 75 588 69 q 615 78 597 78 q 694 89 672 78 l 701 92 l 701 103 l 696 189 q 692 268 693 265 l 692 272 l 550 272 l 407 272 l 368 201 q 325 117 328 129 q 358 82 318 93 q 383 78 369 79 q 407 68 403 78 q 401 36 408 61 q 390 4 396 10 l 386 0 l 368 0 q 118 1 244 7 q 83 8 88 0 q 86 40 81 13 q 101 75 94 72 q 122 78 106 76 q 250 138 211 82 q 488 565 258 149 l 719 985 q 731 992 725 989 m 679 540 q 668 736 668 735 l 668 744 l 558 547 l 450 351 l 568 350 q 688 351 688 350 l 679 540 z "},"B":{"ha":978,"x_min":71,"x_max":1021,"o":"m 307 944 l 311 949 l 558 949 q 819 947 810 949 q 938 907 889 940 q 988 858 968 888 q 1015 792 1008 824 q 1015 722 1021 760 q 865 536 993 606 q 851 529 858 532 q 779 500 825 515 q 765 496 765 499 q 815 482 783 496 q 939 343 919 442 q 942 308 942 326 q 854 118 942 210 q 849 113 851 115 q 667 10 772 36 q 546 1 633 1 q 351 0 551 1 q 76 4 82 0 q 74 10 75 4 q 78 42 71 14 q 89 74 85 71 l 93 78 l 138 78 q 210 83 201 79 q 221 100 217 88 q 317 475 231 128 q 413 861 413 858 q 410 865 413 865 q 344 871 401 868 q 290 881 296 871 q 294 913 289 885 q 307 944 301 939 m 788 869 q 679 871 781 871 q 564 868 576 871 q 556 863 557 865 l 511 693 l 469 526 l 567 526 q 678 529 665 526 q 818 629 764 547 q 854 801 878 718 q 788 869 839 858 m 700 460 q 571 461 692 461 l 453 461 l 407 274 q 360 82 360 88 q 371 79 360 79 q 488 78 375 78 l 594 79 l 607 82 q 756 210 707 111 q 782 301 776 253 q 736 443 792 400 q 700 460 719 456 z "},"C":{"ha":994,"x_min":206,"x_max":1129,"o":"m 758 978 l 788 979 l 789 979 q 979 890 911 979 q 990 875 989 875 l 1043 926 l 1096 979 l 1107 979 q 1128 971 1125 979 q 1082 774 1129 968 q 1032 578 1032 574 q 993 569 1029 569 l 964 569 l 960 574 q 957 599 954 579 q 961 736 968 671 q 854 897 946 872 q 815 900 842 900 q 707 883 764 901 q 585 817 639 861 q 401 515 461 722 q 364 289 364 378 q 381 182 364 225 q 517 58 417 88 q 536 54 526 56 q 776 132 668 26 q 893 335 857 215 q 907 360 900 358 q 935 361 911 361 q 974 353 969 361 q 971 333 975 347 q 789 60 925 167 q 707 8 750 29 q 535 -31 621 -32 q 418 -6 475 -29 q 271 115 324 31 q 211 286 222 188 q 210 383 206 321 q 211 394 211 390 q 319 690 228 550 q 368 754 347 729 q 461 847 406 800 q 758 978 603 963 z "},"D":{"ha":1049,"x_min":69,"x_max":1079,"o":"m 306 944 l 310 949 l 557 949 q 818 947 808 949 q 1031 804 960 933 q 1075 649 1068 736 q 1074 546 1079 606 q 889 164 1047 325 q 851 128 871 144 q 600 3 736 25 q 333 0 588 1 q 75 4 79 0 q 72 10 74 4 q 76 42 69 14 q 88 74 83 71 l 92 78 l 136 78 q 208 83 200 79 q 219 100 215 88 q 315 475 229 128 q 411 861 411 858 q 408 865 411 865 q 343 871 400 868 q 289 881 294 871 q 293 913 288 885 q 306 944 300 939 m 756 869 l 579 869 q 558 863 560 868 l 363 83 q 374 79 363 79 q 472 78 378 78 q 579 82 563 79 q 794 214 711 106 q 879 397 844 279 q 921 576 911 511 q 892 797 947 724 q 756 869 844 858 z "},"E":{"ha":942,"x_min":71,"x_max":1032,"o":"m 307 942 q 667 944 310 944 l 1022 944 l 1028 940 q 1032 929 1032 935 l 986 606 q 981 600 982 601 q 950 597 978 597 q 917 600 921 597 q 913 638 910 604 q 921 735 921 694 q 906 817 921 794 q 850 854 890 842 q 667 867 804 867 q 563 860 567 865 q 518 694 561 858 l 478 531 q 539 529 478 529 q 638 539 615 531 q 699 596 679 553 q 719 658 708 617 q 731 688 726 685 l 735 692 l 763 692 q 801 682 796 692 q 757 489 803 676 q 707 297 708 299 q 669 289 704 289 l 642 289 l 636 293 q 638 332 631 300 q 647 401 647 376 l 644 419 q 610 446 638 439 q 511 451 586 451 l 458 451 l 413 269 q 367 83 367 85 q 375 79 367 79 l 582 79 q 756 139 694 88 q 879 361 815 190 q 893 389 888 383 l 897 393 l 926 393 l 956 393 l 960 389 q 960 367 965 383 q 893 192 953 344 q 821 7 821 6 q 778 1 818 1 q 446 0 733 0 l 81 0 l 75 4 q 71 15 71 11 q 85 69 71 38 q 138 78 101 78 q 208 83 200 79 q 219 100 215 88 q 315 476 229 126 q 410 860 411 860 q 325 867 403 867 l 297 867 l 292 871 q 293 910 285 879 q 307 942 301 939 z "},"F":{"ha":907,"x_min":69,"x_max":1015,"o":"m 304 940 l 308 944 l 657 944 l 1006 944 l 1011 940 q 1015 929 1015 935 l 969 606 q 964 600 965 601 q 933 597 961 597 q 900 600 904 597 q 896 631 893 604 q 896 638 896 633 q 900 792 911 746 q 882 828 894 814 q 806 861 860 853 q 660 867 772 867 q 563 860 567 865 q 517 686 560 858 q 474 513 474 514 q 588 513 474 507 q 604 514 600 513 q 683 571 660 526 q 708 642 696 596 q 717 668 713 660 q 753 674 721 674 q 789 664 785 674 l 792 660 l 744 472 q 696 279 700 288 q 658 271 693 271 q 622 281 626 271 q 624 306 619 285 q 635 376 635 349 q 626 413 636 403 q 593 429 617 425 q 517 433 582 432 l 454 433 l 411 261 q 367 88 367 83 q 386 81 365 83 q 461 78 408 79 l 515 78 l 519 72 q 524 64 524 68 l 510 10 l 510 8 q 483 1 506 0 q 446 1 475 1 q 150 3 322 7 q 124 1 133 1 q 72 10 78 0 q 76 42 69 14 q 88 74 83 71 l 92 78 l 136 78 q 208 83 200 79 q 219 100 215 88 q 315 476 229 126 q 410 860 411 860 q 326 867 403 867 q 289 876 293 867 q 293 908 286 881 q 304 940 300 938 z "},"G":{"ha":1075,"x_min":206,"x_max":1129,"o":"m 758 978 l 788 979 l 789 979 q 979 890 911 979 q 990 875 989 875 l 1043 926 l 1096 979 l 1107 979 q 1128 971 1125 979 q 1082 774 1129 968 q 1032 578 1032 574 q 993 569 1029 569 l 964 569 l 960 574 q 957 599 954 579 q 961 736 968 671 q 854 897 946 872 q 815 900 842 900 q 707 883 764 901 q 585 817 639 861 q 401 515 461 722 q 364 289 364 378 q 381 182 364 225 q 517 58 417 88 q 536 54 526 56 q 735 97 651 29 q 776 151 764 121 q 813 293 813 296 q 789 299 813 296 l 724 301 q 668 304 674 301 q 660 317 660 307 l 674 371 q 703 378 679 379 q 732 378 710 378 q 1044 379 957 372 l 1057 379 l 1061 375 q 1067 365 1067 369 l 1054 311 q 1025 301 1051 301 q 969 297 981 301 q 963 292 967 296 q 925 149 961 289 q 888 6 890 8 q 875 0 882 -3 q 819 47 858 6 q 811 57 814 53 l 803 67 l 792 56 q 604 -26 718 -10 q 497 -28 557 -33 q 308 68 381 -8 q 253 146 275 101 q 211 286 219 208 q 210 383 206 321 q 211 394 211 390 q 319 690 228 550 q 368 754 347 729 q 461 847 406 800 q 758 978 603 963 z "},"H":{"ha":1032,"x_min":71,"x_max":1199,"o":"m 306 944 l 310 949 l 328 949 q 589 946 450 943 q 685 949 686 949 l 699 949 l 703 944 q 708 935 708 939 l 696 879 q 643 871 678 871 q 571 865 583 869 l 564 861 l 563 860 q 518 693 560 857 l 478 532 l 649 532 l 819 533 l 861 696 q 901 861 901 857 q 899 865 901 865 q 833 871 890 868 q 779 881 785 871 q 783 913 778 885 q 796 944 790 939 l 800 949 l 818 949 q 1079 946 940 943 q 1175 949 1176 949 l 1189 949 l 1193 944 q 1199 935 1199 939 l 1186 879 q 1133 871 1168 871 q 1061 865 1074 869 l 1054 861 l 1053 860 q 953 471 1049 856 q 858 85 857 85 q 943 78 865 78 l 971 78 l 976 74 q 981 63 981 67 q 967 8 981 40 q 938 1 963 0 q 914 1 932 1 q 586 0 707 7 l 571 0 l 567 4 q 561 15 561 10 q 575 69 561 38 q 628 78 592 78 q 699 83 690 79 q 714 108 707 88 q 756 272 719 129 l 800 453 q 629 454 800 454 l 458 454 l 413 269 q 368 85 367 85 q 453 78 375 78 l 481 78 l 486 74 q 490 63 490 68 q 476 8 490 40 q 447 1 472 0 q 424 1 442 1 q 96 0 217 7 l 81 0 l 76 4 q 71 15 71 10 q 85 69 71 38 q 138 78 101 78 q 208 83 200 79 q 219 100 215 88 q 315 475 229 128 q 411 861 411 858 q 408 865 411 865 q 343 871 400 868 q 289 881 294 871 q 293 913 288 885 q 306 944 300 939 z "},"I":{"ha":536,"x_min":61,"x_max":713,"o":"m 299 947 q 322 949 301 949 q 661 947 482 942 q 710 940 704 949 q 707 908 713 936 q 693 874 700 876 q 644 871 686 871 q 568 864 579 869 q 558 854 561 861 q 460 471 551 835 q 365 85 364 86 q 454 78 368 78 l 485 78 l 490 74 q 494 64 494 68 l 482 8 q 453 1 478 0 q 426 1 446 1 q 88 0 210 7 l 71 0 l 67 4 q 61 14 61 10 l 74 69 q 113 78 78 78 q 129 78 119 78 q 214 89 203 79 q 313 475 215 90 q 408 861 408 858 q 406 865 408 863 q 333 871 399 869 l 289 871 l 283 876 q 285 914 276 883 q 299 947 293 943 z "},"J":{"ha":729,"x_min":96,"x_max":864,"o":"m 460 947 q 486 949 463 949 q 821 947 674 942 q 863 939 857 949 q 857 907 864 935 q 846 875 851 881 l 842 871 l 819 871 q 757 865 771 871 q 749 858 751 864 q 663 519 746 853 q 574 172 579 183 q 418 4 532 63 q 371 -15 394 -7 q 174 -6 258 -53 q 164 0 168 -3 q 108 60 125 25 q 96 119 96 85 q 97 154 96 146 q 142 224 108 200 q 239 235 193 258 q 263 214 254 228 q 272 178 272 199 q 261 132 272 156 q 193 76 239 90 q 197 68 189 75 q 283 35 228 35 q 397 111 343 35 q 429 172 417 139 l 599 846 q 603 861 603 860 q 506 871 603 869 l 450 871 l 446 875 q 446 914 438 881 q 460 947 453 943 z "},"K":{"ha":1068,"x_min":69,"x_max":1194,"o":"m 306 944 l 310 949 l 328 949 q 589 946 450 943 q 685 949 686 949 l 699 949 l 703 944 q 708 935 708 939 l 696 879 q 643 871 678 871 q 571 865 583 869 l 564 861 l 563 860 q 510 657 558 856 q 460 457 460 460 l 888 824 q 894 832 888 825 q 903 851 903 842 q 900 861 903 857 q 874 871 892 869 q 853 881 857 871 q 857 913 851 885 q 869 944 864 939 l 874 949 l 894 949 q 1160 947 1044 942 q 1192 939 1188 949 q 1188 907 1194 935 q 1174 874 1179 875 q 1151 871 1169 872 q 989 817 1053 867 q 972 804 974 806 l 713 582 l 708 578 l 792 343 q 876 104 872 108 q 896 86 885 90 q 956 78 913 79 q 993 68 988 78 q 989 36 994 64 q 976 4 982 10 l 972 0 l 956 0 q 671 1 843 6 q 621 10 626 0 q 625 42 619 14 q 642 75 633 74 q 661 78 644 76 q 714 104 713 79 q 650 293 714 111 l 586 474 l 431 340 l 368 85 q 451 78 375 78 q 489 68 485 78 q 485 36 492 64 q 474 4 476 7 l 469 0 l 449 0 q 119 1 304 7 q 72 10 78 0 q 76 42 69 14 q 88 74 83 71 l 92 78 l 136 78 q 208 83 200 79 q 219 100 215 88 q 315 475 229 128 q 411 861 411 858 q 408 865 411 865 q 343 871 400 868 q 289 881 294 871 q 293 913 288 885 q 306 944 300 939 z "},"L":{"ha":871,"x_min":71,"x_max":876,"o":"m 306 944 l 310 949 l 331 949 q 685 947 474 942 q 740 939 735 949 q 736 907 742 935 q 725 875 728 879 l 721 871 l 665 871 q 563 858 575 869 q 463 469 558 856 q 367 82 367 86 q 375 79 367 79 l 522 79 q 654 129 596 88 q 706 179 686 151 q 788 351 749 236 q 806 390 801 388 q 838 393 810 393 q 868 390 865 393 q 876 378 876 388 l 749 7 q 708 1 746 1 q 410 0 668 0 l 81 0 l 75 4 q 71 15 71 11 q 85 69 71 38 q 138 78 101 78 q 208 83 200 79 q 219 100 215 88 q 315 475 229 128 q 411 861 411 858 q 408 865 411 865 q 343 871 400 868 q 289 881 294 871 q 293 913 288 885 q 306 944 300 939 z "},"M":{"ha":1246,"x_min":72,"x_max":1410,"o":"m 308 944 l 313 949 l 456 949 q 608 940 603 949 q 642 568 610 939 q 672 199 672 196 l 885 563 q 1101 933 1099 929 q 1114 944 1107 942 l 1121 949 l 1261 949 l 1400 949 l 1406 944 q 1410 935 1410 939 l 1397 879 q 1344 871 1379 871 q 1272 865 1285 869 l 1265 861 l 1264 860 q 1164 471 1260 856 q 1069 85 1068 85 q 1153 78 1076 78 q 1190 68 1186 78 q 1186 36 1193 64 q 1175 4 1181 10 l 1171 0 l 1150 0 q 832 1 1010 7 q 785 10 790 0 q 789 42 782 14 q 799 74 796 68 l 804 78 l 847 78 q 921 83 913 79 q 932 101 928 88 q 1025 463 942 128 q 1117 832 1117 835 q 878 424 1115 832 q 636 11 638 13 l 626 3 q 594 0 621 0 q 558 8 561 0 q 522 417 556 15 l 489 822 l 401 472 q 314 117 314 126 q 315 107 314 108 q 404 78 326 78 q 426 68 424 78 q 422 36 429 64 q 411 4 417 10 l 407 0 l 389 0 q 115 1 263 7 q 75 10 81 0 q 79 42 72 14 q 90 74 86 69 q 108 78 94 78 q 229 124 207 78 l 414 861 q 411 865 414 865 q 346 871 403 868 q 292 881 297 871 q 296 913 290 885 q 308 944 303 939 z "},"N":{"ha":1032,"x_min":71,"x_max":1199,"o":"m 306 944 l 310 949 l 442 949 l 574 949 l 578 944 q 585 935 582 942 l 701 604 q 818 276 818 278 q 821 281 818 275 q 889 549 826 299 q 957 842 960 832 q 953 847 957 843 q 868 871 938 871 q 844 881 849 871 q 849 913 843 886 q 861 944 856 939 l 865 949 l 881 949 q 1097 946 963 943 l 1178 949 l 1189 949 l 1193 944 q 1199 935 1199 939 l 1186 879 q 1153 871 1181 871 q 1075 854 1107 869 q 1044 826 1054 844 q 940 417 1040 819 q 838 10 838 6 q 832 3 836 7 q 797 0 828 0 l 767 0 l 763 4 q 625 382 758 7 q 486 775 483 782 l 479 794 l 394 460 q 311 118 311 125 q 313 107 311 108 q 401 78 324 78 l 415 78 l 421 74 q 425 63 425 68 q 411 8 425 40 q 386 1 407 0 q 365 1 381 1 q 93 0 192 7 l 81 0 l 76 4 q 71 15 71 10 q 85 69 71 38 q 107 78 88 78 q 201 99 169 78 q 224 119 215 106 q 321 497 228 126 q 411 868 413 868 l 354 871 q 289 881 294 871 q 293 913 288 885 q 306 944 300 939 z "},"O":{"ha":1065,"x_min":193,"x_max":1096,"o":"m 750 978 q 826 975 788 982 q 1033 843 960 956 q 1068 772 1058 804 q 1094 629 1093 706 q 1058 414 1096 522 q 888 139 1007 260 q 654 -8 779 32 q 343 26 474 -68 q 307 57 324 40 q 208 371 193 171 q 279 618 218 494 q 522 894 368 794 q 750 978 632 967 m 788 907 q 654 882 722 917 q 458 672 533 825 q 394 489 421 596 q 365 283 365 367 q 392 140 365 197 q 538 40 439 43 q 564 42 550 40 q 788 193 686 56 q 853 304 825 243 q 940 617 919 453 q 940 724 946 669 q 940 729 940 726 q 883 857 925 813 q 788 907 846 899 z "},"P":{"ha":942,"x_min":71,"x_max":1042,"o":"m 306 944 l 310 949 l 547 949 q 800 947 792 949 q 978 850 919 935 q 986 625 1042 750 q 968 590 978 607 q 858 476 925 522 q 674 406 772 417 q 553 404 665 404 l 446 404 l 407 244 q 368 85 365 85 q 453 78 375 78 l 481 78 l 486 74 q 490 63 490 68 q 476 8 490 40 q 447 1 472 0 q 424 1 442 1 q 96 0 217 7 l 81 0 l 76 4 q 71 15 71 10 q 85 69 71 38 q 138 78 101 78 q 208 83 200 79 q 219 100 215 88 q 315 475 229 128 q 411 861 411 858 q 408 865 411 865 q 343 871 400 868 q 289 881 294 871 q 293 913 288 885 q 306 944 300 939 m 765 867 q 667 871 750 869 q 567 868 579 871 q 558 863 560 865 q 508 669 557 861 q 460 478 460 479 q 544 475 460 475 q 646 476 636 475 q 792 549 746 485 q 838 672 814 582 q 854 774 854 739 q 833 836 856 813 q 765 867 808 860 z "},"Q":{"ha":1065,"x_min":193,"x_max":1099,"o":"m 750 978 q 826 975 788 982 q 1033 843 960 956 q 1068 772 1058 804 q 1092 679 1082 738 q 1093 575 1099 625 q 976 250 1081 403 q 728 22 878 100 l 707 13 l 710 0 q 739 -85 717 -58 q 793 -104 758 -104 q 910 -46 863 -104 q 932 -6 925 -26 q 950 15 939 15 q 965 3 963 15 q 951 -49 965 -7 q 767 -268 888 -251 q 713 -265 739 -274 q 654 -218 671 -254 q 639 -136 639 -187 q 646 -47 639 -106 l 649 -11 l 633 -15 q 339 29 461 -62 q 307 57 322 42 q 208 371 193 171 q 279 618 218 494 q 522 894 368 794 q 750 978 632 967 m 783 908 q 569 824 678 922 q 529 782 549 804 q 399 521 446 682 q 363 347 371 418 q 421 89 339 172 l 432 79 l 432 86 q 460 153 436 118 q 551 218 494 203 q 585 221 563 221 q 658 194 631 221 q 678 167 669 182 q 688 142 685 153 q 697 99 697 113 q 699 96 697 96 q 736 126 703 96 q 824 236 783 169 q 872 336 851 282 q 942 619 926 474 q 942 711 947 661 q 879 861 932 807 q 783 908 838 900 m 607 153 q 560 154 579 161 q 524 132 540 149 q 499 78 499 107 q 510 47 499 61 q 543 39 519 39 q 636 60 589 39 l 653 67 l 653 79 q 635 135 651 114 q 607 153 626 146 z "},"R":{"ha":1013,"x_min":71,"x_max":1007,"o":"m 306 944 l 310 949 l 533 949 l 758 947 l 778 944 q 925 882 869 931 q 993 768 981 838 q 990 693 999 731 q 856 519 967 594 q 760 472 810 490 q 747 467 749 467 l 758 456 q 808 393 788 432 q 825 321 824 357 q 817 222 825 292 q 810 114 810 153 q 813 71 810 81 q 856 35 821 40 q 885 44 874 35 q 924 121 906 58 q 939 144 929 142 q 967 146 944 146 q 1001 139 996 146 q 999 108 1007 132 q 890 -24 964 6 q 871 -29 881 -28 q 836 -31 861 -31 q 653 60 693 -24 q 640 114 642 81 q 642 147 640 140 q 661 233 649 179 q 682 353 685 328 q 624 438 676 418 l 614 442 l 532 442 l 451 442 l 450 436 q 406 258 450 439 q 364 85 363 85 q 449 78 371 78 l 476 78 l 482 74 q 486 63 486 68 q 472 8 486 40 q 444 1 468 0 q 421 1 439 1 q 96 0 213 7 l 81 0 l 76 4 q 71 15 71 10 q 85 69 71 38 q 138 78 101 78 q 208 83 200 79 q 219 100 215 88 q 315 475 229 128 q 411 861 411 858 q 408 865 411 865 q 343 871 400 868 q 289 881 294 871 q 293 913 288 885 q 306 944 300 939 m 738 868 q 653 871 729 869 q 567 868 579 871 q 558 863 560 865 l 468 507 l 549 507 q 672 515 643 508 q 790 594 753 533 q 825 694 808 625 q 838 774 838 746 q 815 833 838 811 q 790 851 801 847 q 738 868 772 861 z "},"S":{"ha":781,"x_min":103,"x_max":881,"o":"m 565 976 q 651 974 607 983 q 725 944 693 965 q 764 908 742 933 q 769 900 768 901 l 807 939 q 847 978 846 978 q 860 979 847 979 q 879 971 875 979 q 840 804 881 965 q 796 638 799 640 l 792 633 l 763 633 q 724 640 726 633 q 725 664 722 646 q 689 868 747 810 q 597 906 657 901 q 474 851 529 907 q 429 792 444 822 q 406 690 404 739 q 417 640 407 658 q 456 599 431 611 q 544 571 458 597 q 658 532 640 543 q 750 353 747 481 q 693 150 751 251 q 572 19 649 71 q 463 -26 519 -15 q 417 -29 449 -29 q 336 -21 369 -29 q 226 40 268 -3 l 215 51 l 178 13 l 138 -29 l 124 -31 l 122 -31 q 107 -26 111 -31 q 103 -19 103 -22 q 183 307 103 -15 q 222 315 193 315 l 251 315 l 256 311 q 257 283 261 306 q 256 276 257 281 q 264 139 239 194 q 386 51 293 67 q 450 49 426 44 q 578 147 524 61 q 610 218 599 181 q 618 286 618 249 q 610 342 618 322 q 568 389 596 376 q 478 418 558 394 q 379 449 394 442 q 328 486 351 463 q 275 653 267 550 q 349 843 283 753 q 422 915 383 886 q 565 976 492 968 z "},"T":{"ha":994,"x_min":233,"x_max":1121,"o":"m 344 938 l 347 940 l 728 940 q 1118 932 1111 940 q 1093 765 1121 925 q 1063 600 1063 601 q 1025 593 1058 593 q 989 601 992 593 q 992 643 986 607 q 1003 803 1013 761 q 986 832 1001 819 q 950 853 974 844 q 857 863 921 863 q 786 854 792 863 l 594 86 q 701 78 606 79 q 771 68 765 78 q 767 36 772 64 q 754 4 760 10 l 750 0 l 725 0 q 303 1 544 7 q 243 10 249 0 q 247 42 242 14 q 260 74 254 68 l 264 78 l 304 78 q 417 82 394 78 q 433 86 432 86 q 443 94 440 89 q 542 476 453 115 q 636 860 638 860 q 563 863 632 863 q 501 858 513 861 q 444 840 468 853 q 404 813 419 828 q 326 647 369 778 q 310 600 310 601 q 272 593 304 593 q 236 601 239 593 q 233 608 233 607 l 339 931 q 344 938 339 935 z "},"U":{"ha":1032,"x_min":244,"x_max":1199,"o":"m 306 944 l 310 949 l 328 949 q 589 946 450 943 q 685 949 686 949 l 699 949 l 703 944 q 708 935 708 939 l 696 879 q 643 871 678 871 q 571 865 583 869 l 564 861 l 563 860 q 486 565 560 857 q 406 231 413 271 q 431 94 393 140 q 578 50 476 35 q 621 61 600 54 q 824 279 765 106 q 897 563 826 288 q 961 842 964 832 q 957 847 961 843 q 872 871 942 871 q 849 881 853 871 q 853 913 847 886 q 865 944 860 939 l 869 949 l 885 949 q 1099 946 965 943 l 1178 949 l 1189 949 l 1193 944 q 1199 935 1199 939 l 1186 879 q 1153 871 1181 871 q 1075 854 1107 869 q 1044 826 1054 844 q 975 558 1039 818 q 904 283 910 301 q 724 36 854 128 q 539 -31 633 -28 q 336 46 415 -35 q 326 57 331 51 q 271 293 244 156 q 343 583 275 319 q 411 861 411 858 q 408 865 411 865 q 343 871 400 868 q 289 881 294 871 q 293 913 288 885 q 306 944 300 939 z "},"V":{"ha":1032,"x_min":281,"x_max":1208,"o":"m 299 944 l 303 949 l 319 949 q 551 946 397 943 q 647 949 649 949 l 661 949 l 665 944 q 671 933 671 939 q 657 879 671 911 q 621 871 654 871 q 579 868 590 868 q 549 858 553 863 q 574 529 547 857 q 600 200 600 186 l 963 825 q 958 854 968 844 q 908 871 944 869 q 889 876 893 871 q 890 913 883 882 q 904 947 897 943 q 944 947 908 949 q 1185 949 1107 942 q 1200 944 1196 949 q 1200 906 1208 939 q 1190 878 1192 879 q 1164 871 1186 871 q 1071 844 1106 867 q 1043 817 1053 832 q 1036 808 1042 815 q 796 394 1046 829 l 554 -21 q 508 -31 544 -31 q 474 -28 478 -31 l 468 -22 q 432 419 465 -19 q 396 861 396 868 q 331 871 392 869 q 283 881 288 871 q 288 913 281 885 q 299 944 296 942 z "},"W":{"ha":1388,"x_min":279,"x_max":1563,"o":"m 300 947 q 319 949 303 949 q 543 946 406 943 q 639 949 640 949 l 653 949 l 657 944 q 663 935 663 939 l 650 879 q 611 871 644 871 q 569 868 581 868 q 538 858 542 863 q 547 544 535 857 l 558 232 l 701 497 l 844 764 l 842 813 q 839 864 839 863 q 768 871 832 871 l 744 871 l 740 875 q 740 914 732 881 q 750 942 749 940 q 785 947 754 949 q 794 947 788 947 q 1092 949 969 942 l 1107 949 l 1111 944 q 1117 935 1117 939 l 1104 879 q 1067 871 1099 871 q 993 858 1010 868 l 989 857 l 1001 547 l 1013 235 q 1044 292 1013 232 q 1171 525 1082 361 q 1331 824 1332 826 q 1329 844 1335 836 q 1253 871 1310 868 q 1240 875 1244 871 q 1240 911 1232 881 q 1249 940 1244 932 q 1278 947 1253 949 q 1301 947 1283 947 q 1508 946 1403 942 q 1524 947 1518 947 q 1561 939 1554 949 l 1563 935 l 1556 907 q 1544 875 1550 881 q 1531 871 1540 871 q 1456 856 1486 871 q 1408 815 1428 843 q 1182 394 1399 794 q 957 -21 958 -21 q 914 -31 949 -31 q 875 -22 878 -31 q 861 296 874 -21 q 849 614 851 610 q 844 610 849 617 q 678 301 835 594 l 504 -21 q 460 -31 494 -31 q 425 -28 429 -31 q 419 -21 422 -26 l 401 421 q 385 863 386 860 q 378 867 382 865 q 314 871 365 871 l 290 871 l 285 875 q 286 913 279 882 q 300 947 294 943 z "},"X":{"ha":1032,"x_min":69,"x_max":1147,"o":"m 322 946 q 342 949 326 949 q 579 946 422 943 q 678 949 679 949 l 692 949 l 696 944 q 701 935 701 939 l 688 881 l 688 879 q 663 871 685 871 l 636 867 l 599 856 l 678 614 l 844 813 q 854 825 854 824 q 860 843 860 836 q 821 869 856 863 q 807 871 814 871 q 794 875 799 871 q 796 913 789 882 q 810 947 803 943 q 857 947 814 949 q 1086 946 958 942 q 1104 947 1097 947 q 1146 939 1140 949 q 1142 907 1147 935 q 1131 875 1133 879 l 1126 871 l 1101 871 q 958 831 1008 867 q 815 668 935 813 q 706 538 703 535 q 776 313 704 535 q 853 88 849 96 q 865 83 857 83 q 944 78 885 78 l 972 78 l 978 74 q 982 63 982 67 q 968 8 982 40 q 942 1 964 0 q 918 1 936 1 q 664 3 824 7 q 640 1 650 1 q 586 10 593 0 l 585 14 l 592 42 q 607 76 599 74 q 622 78 610 76 q 678 89 651 81 l 689 93 l 639 244 l 589 397 l 476 263 q 361 122 363 126 q 378 83 347 99 q 404 78 389 79 q 425 68 421 78 q 419 36 426 61 q 408 4 414 10 l 404 0 l 388 0 q 163 3 272 6 q 90 0 92 0 l 79 0 l 75 4 q 69 14 69 10 l 82 69 q 115 78 88 78 q 238 106 190 82 q 278 136 258 117 q 425 310 304 163 q 561 474 561 471 l 436 858 q 357 871 431 869 q 307 879 311 871 q 310 911 304 883 q 322 946 317 940 z "},"Y":{"ha":1032,"x_min":271,"x_max":1218,"o":"m 289 944 l 293 949 l 310 949 q 549 946 393 943 q 647 949 649 949 l 661 949 l 665 944 q 671 935 671 939 l 657 881 l 657 879 q 622 871 654 871 l 589 868 q 565 861 574 865 q 618 671 564 860 l 674 481 l 943 822 q 942 864 963 854 q 908 871 931 871 q 896 875 900 871 q 896 914 888 881 q 906 942 904 940 q 940 947 910 949 q 950 947 943 947 q 1194 949 1110 942 q 1210 946 1206 949 q 1210 908 1218 938 q 1201 879 1206 888 q 1181 871 1197 871 q 1096 857 1138 871 q 1025 811 1056 843 q 847 588 1013 799 l 683 379 l 647 238 q 611 92 611 93 q 618 82 610 83 q 696 78 631 78 q 733 68 728 78 q 729 36 735 63 q 717 4 722 10 l 713 0 l 694 0 q 438 3 572 6 q 342 0 340 0 l 328 0 l 324 4 q 318 15 318 10 q 332 69 318 38 q 385 78 349 78 q 456 83 444 79 q 469 100 465 88 l 506 244 l 539 381 l 471 619 q 394 864 401 857 q 386 867 394 865 q 310 871 369 871 q 274 881 278 871 q 278 913 271 885 q 289 944 286 942 z "},"Z":{"ha":851,"x_min":110,"x_max":981,"o":"m 381 946 q 678 949 383 949 l 971 949 l 974 946 q 972 913 981 940 l 967 893 l 636 490 q 303 85 310 92 q 306 83 301 83 q 394 82 313 82 q 503 85 494 83 q 681 178 622 103 q 761 358 719 229 q 774 399 771 396 q 811 406 778 406 l 839 406 l 844 401 q 849 392 849 396 l 733 10 q 728 3 732 7 q 421 0 724 0 q 115 3 118 0 q 115 33 110 7 l 122 58 q 456 464 118 54 q 788 869 786 868 q 779 871 789 871 q 701 871 768 871 q 563 861 597 869 q 461 810 501 844 q 364 638 400 760 q 351 606 356 610 l 347 601 l 318 601 l 289 601 l 285 606 q 279 614 283 607 q 325 778 279 621 q 375 940 374 939 q 381 946 375 946 z "},"[":{"ha":426,"x_min":100,"x_max":619,"o":"m 446 1038 l 450 1042 l 529 1042 q 613 1039 608 1042 q 618 1032 617 1035 q 617 1011 619 1028 q 607 990 613 996 l 603 986 l 544 986 l 486 986 l 485 981 q 326 344 485 983 q 167 -289 167 -287 q 221 -292 167 -292 q 279 -294 275 -292 q 285 -301 283 -299 q 283 -322 286 -306 q 274 -343 279 -337 l 269 -347 l 190 -347 q 107 -344 111 -347 q 101 -337 103 -340 q 269 350 100 -332 q 446 1038 440 1033 z "},"\\":{"ha":714,"x_min":307,"x_max":839,"o":"m 503 958 q 522 963 515 967 l 549 926 q 535 904 551 919 q 389 701 429 818 l 385 686 l 396 690 q 446 693 421 699 q 500 624 500 681 q 450 532 500 565 q 438 525 444 528 q 389 514 415 514 q 363 517 369 514 q 308 607 313 533 q 325 708 307 649 q 446 906 363 819 q 503 958 471 933 m 790 958 q 810 963 803 967 l 836 926 q 822 904 839 919 q 676 701 717 818 l 672 686 l 683 690 q 733 693 708 699 q 788 624 788 681 q 738 532 788 565 q 725 525 732 528 q 676 514 703 514 q 650 517 657 514 q 596 607 600 533 q 613 708 594 649 q 733 906 650 819 q 790 958 758 933 z "},"]":{"ha":426,"x_min":-18,"x_max":501,"o":"m 328 1038 l 332 1042 l 411 1042 q 494 1039 490 1042 q 500 1032 499 1035 q 332 344 501 1026 q 156 -343 161 -339 l 151 -347 l 72 -347 q -11 -344 -7 -347 q -17 -337 -15 -340 q -15 -317 -18 -333 q -6 -296 -11 -301 l -1 -292 l 57 -292 l 115 -292 l 117 -286 q 275 350 117 -289 q 435 983 435 982 q 381 986 435 986 q 322 989 326 986 q 317 996 318 993 q 318 1017 315 1000 q 328 1038 322 1032 z "},"^":{"ha":710,"x_min":357,"x_max":739,"o":"m 586 963 q 601 960 593 968 l 738 778 q 738 765 739 774 l 692 726 l 690 726 q 674 726 683 719 q 621 792 668 729 q 569 853 571 853 q 494 794 569 854 q 413 731 419 738 q 389 725 397 721 l 358 767 q 357 769 357 768 q 358 778 357 775 q 471 871 361 782 q 586 963 578 958 z "},"_":{"ha":426,"x_min":314,"x_max":529,"o":"m 422 926 q 503 900 475 939 q 513 881 510 892 q 483 782 529 829 q 464 767 474 774 q 361 760 407 728 q 353 767 357 763 q 339 860 314 803 q 365 896 349 879 q 422 926 389 919 z "},"`":{"ha":426,"x_min":264,"x_max":508,"o":"m 460 957 q 479 963 471 967 l 506 926 q 492 904 508 919 q 346 701 386 818 l 342 686 l 353 690 q 403 693 378 699 q 457 624 457 681 q 407 532 457 565 q 394 525 401 528 q 346 514 372 514 q 319 517 326 514 q 265 607 269 533 q 282 708 264 649 q 406 910 318 818 q 460 957 453 953 z "},"a":{"ha":710,"x_min":118,"x_max":761,"o":"m 444 613 l 472 614 l 474 614 q 528 600 504 613 q 569 569 551 589 l 581 558 l 589 565 q 661 582 622 597 q 688 558 681 575 q 685 504 693 543 q 642 332 678 474 q 590 121 592 129 q 589 67 585 82 q 597 56 592 60 q 610 51 601 51 q 625 54 619 51 q 679 181 651 74 q 690 210 686 207 q 724 213 693 213 q 758 210 754 213 q 761 199 761 207 q 754 165 761 190 q 608 -15 703 -10 q 494 33 538 -19 q 482 51 488 42 q 478 60 479 60 l 468 51 q 372 -6 419 8 q 210 22 282 -36 q 194 38 201 29 q 160 88 174 58 q 143 286 118 172 q 288 536 175 438 q 444 613 363 601 m 474 547 q 364 493 417 557 q 339 454 350 475 q 289 296 318 414 q 263 179 271 229 q 263 107 257 132 q 317 51 276 58 q 374 61 340 47 q 468 154 424 89 l 475 164 l 510 301 l 544 440 l 542 451 q 479 546 529 531 q 474 547 476 547 z "},"b":{"ha":639,"x_min":140,"x_max":663,"o":"m 317 956 q 424 964 425 964 q 440 954 436 964 q 394 760 442 949 l 347 569 l 361 578 q 478 614 422 615 q 614 538 567 610 q 649 458 636 504 q 646 314 663 388 q 556 119 625 206 q 494 57 526 82 q 360 -11 433 6 q 321 -14 347 -14 q 281 -11 294 -14 q 224 15 251 -4 q 171 78 189 40 q 144 165 151 118 q 146 256 140 203 q 221 565 149 276 q 286 860 292 849 q 226 871 276 869 q 188 881 193 871 l 186 885 l 193 913 q 204 944 199 939 q 213 949 208 949 l 317 956 m 482 544 q 442 547 469 550 q 360 493 401 536 q 318 440 338 471 q 292 350 315 438 l 265 243 q 281 71 238 113 q 311 53 293 57 q 404 85 356 40 q 476 215 449 122 q 499 297 486 247 q 528 460 528 415 q 521 506 528 489 q 482 544 511 533 z "},"c":{"ha":639,"x_min":117,"x_max":657,"o":"m 481 613 q 546 610 514 617 q 649 522 629 593 q 649 467 657 496 q 603 404 639 424 q 517 408 551 378 q 500 442 503 421 q 528 515 493 479 q 543 528 535 524 l 551 532 l 546 536 q 460 544 514 556 q 364 481 406 528 q 294 318 324 432 q 289 299 292 308 q 267 163 267 207 q 269 124 267 133 q 336 54 282 68 q 447 64 378 43 q 574 144 517 88 q 608 167 599 169 l 628 147 q 643 115 647 125 q 596 65 636 103 q 407 -12 515 3 q 329 -14 358 -18 q 158 107 207 1 q 144 146 150 125 q 171 372 117 251 q 260 500 204 444 q 369 579 313 553 q 481 613 425 607 z "},"d":{"ha":710,"x_min":125,"x_max":796,"o":"m 671 956 q 778 964 779 964 q 794 954 790 964 q 694 540 796 949 l 589 118 q 589 67 586 86 q 597 56 592 60 q 610 51 601 51 q 625 54 619 51 q 679 181 651 74 q 690 210 686 207 q 724 213 693 213 q 758 210 754 213 q 761 199 761 207 q 754 165 761 190 q 608 -15 703 -10 q 494 33 538 -19 q 482 51 488 42 q 478 60 479 60 l 468 51 q 372 -6 419 8 q 210 22 282 -36 q 194 38 201 29 q 160 88 174 58 q 138 256 125 158 q 272 522 160 414 q 429 610 344 592 q 468 613 442 613 q 528 601 503 613 q 564 575 547 592 q 575 567 575 564 q 610 700 576 568 q 643 844 642 829 q 640 860 643 857 q 581 871 631 869 q 542 881 547 871 l 540 885 l 547 913 q 558 944 553 939 q 567 949 563 949 l 671 956 m 474 547 q 364 493 417 557 q 339 454 350 475 q 289 296 318 414 q 263 179 271 229 q 263 107 257 132 q 317 51 276 58 q 374 61 340 47 q 468 154 424 89 l 475 164 l 510 303 l 544 442 l 542 451 q 481 546 529 531 q 474 547 478 547 z "},"e":{"ha":639,"x_min":138,"x_max":657,"o":"m 469 613 q 547 610 513 618 q 590 594 568 604 q 654 521 640 569 q 657 489 657 511 q 654 454 657 464 q 614 382 642 413 q 497 322 575 343 q 324 303 433 307 l 290 303 l 288 294 q 274 221 274 218 q 272 132 267 171 q 354 51 288 58 q 367 50 360 50 q 506 90 439 50 q 574 144 539 110 q 608 167 599 169 l 628 147 q 643 115 647 125 q 596 65 636 103 q 440 -6 529 14 q 358 -14 406 -14 q 286 -4 315 -14 q 211 43 244 11 q 172 100 186 69 q 142 222 146 151 q 224 472 138 364 q 282 529 250 506 q 469 613 365 597 m 515 546 q 400 518 457 557 q 322 415 350 486 q 307 369 307 378 q 407 372 307 364 q 424 374 417 372 q 550 425 515 383 q 569 471 565 444 q 533 540 576 521 q 515 546 525 544 z "},"f":{"ha":426,"x_min":-31,"x_max":624,"o":"m 483 978 q 511 979 490 979 q 569 964 543 978 q 624 875 624 936 q 613 828 624 850 q 596 804 607 814 q 572 786 582 790 q 499 785 533 768 q 474 849 464 803 q 476 860 475 854 q 511 907 486 892 q 501 914 518 911 q 488 911 492 914 q 472 892 476 903 q 443 764 467 881 q 411 600 411 611 q 486 599 411 599 l 561 599 l 567 594 q 565 557 572 588 q 553 524 558 526 q 472 521 549 521 q 396 518 396 521 l 360 335 l 318 119 q 246 -139 281 -61 q 132 -274 201 -242 q 90 -285 113 -283 q -7 -247 29 -287 q -11 -243 -10 -246 q -31 -182 -31 -215 q -19 -133 -31 -156 q -3 -110 -14 -119 q 21 -92 11 -96 q 94 -90 60 -74 q 119 -154 129 -108 q 117 -165 118 -160 q 82 -212 107 -197 q 92 -218 74 -218 q 108 -214 103 -218 q 136 -142 126 -200 q 178 56 150 -54 l 206 181 q 271 519 271 529 q 207 521 271 521 q 133 531 139 521 q 138 563 131 535 q 149 594 144 590 l 153 599 l 219 599 l 286 599 l 286 601 l 300 669 q 354 871 328 814 q 483 978 397 958 z "},"g":{"ha":639,"x_min":60,"x_max":693,"o":"m 440 611 q 571 571 519 624 l 582 558 l 589 565 q 643 586 613 589 q 688 558 675 583 q 685 510 693 544 q 613 215 678 474 q 531 -107 532 -104 q 504 -161 524 -133 q 456 -212 489 -185 q 364 -264 417 -244 q 299 -281 333 -275 q 211 -283 271 -286 q 63 -214 85 -275 q 60 -190 60 -200 q 114 -104 60 -129 q 131 -99 122 -101 q 200 -118 176 -87 q 207 -131 204 -124 q 192 -208 221 -169 q 189 -215 186 -215 q 258 -219 194 -219 q 314 -207 289 -218 q 393 -133 363 -185 q 399 -124 396 -129 q 428 -26 407 -106 l 446 44 l 432 36 q 296 1 364 -7 q 153 124 190 18 q 138 192 140 156 q 140 268 132 228 q 276 528 164 424 q 390 599 329 576 q 440 611 414 607 m 474 547 q 369 501 419 557 q 340 457 351 482 q 288 296 319 418 q 264 153 264 197 q 274 103 264 122 q 339 65 293 63 q 471 165 404 72 l 479 178 l 511 310 q 543 457 544 443 q 539 471 542 458 q 508 528 529 507 q 474 547 494 543 z "},"h":{"ha":710,"x_min":90,"x_max":765,"o":"m 317 956 q 424 964 425 964 q 440 954 436 964 q 393 751 443 947 l 343 554 l 347 557 q 400 590 376 579 q 496 614 443 611 q 618 579 572 617 q 661 510 649 556 q 664 464 664 497 q 663 418 664 428 q 588 172 647 339 q 561 90 565 113 q 569 51 557 56 q 608 58 586 46 q 681 188 651 85 q 694 211 688 210 q 724 213 699 213 q 757 210 754 213 q 757 181 765 204 q 711 79 742 126 q 585 -14 656 -4 q 533 -11 560 -19 q 472 26 493 -3 q 446 101 446 58 q 467 188 446 128 q 543 447 535 371 q 542 510 549 481 q 514 544 532 538 q 471 547 500 551 q 313 408 379 533 l 303 390 l 258 214 q 208 26 214 36 q 143 -15 185 -11 q 93 18 103 -15 q 90 31 90 25 q 189 436 90 40 q 286 860 292 847 q 226 871 276 869 q 188 881 193 871 l 186 885 l 193 913 q 204 944 199 939 q 213 949 208 949 l 317 956 z "},"i":{"ha":426,"x_min":97,"x_max":482,"o":"m 386 908 q 458 883 436 921 q 467 856 465 871 q 457 815 467 835 q 376 764 425 771 q 344 772 361 764 q 322 797 331 779 q 317 819 318 803 q 325 858 317 842 q 386 908 344 897 m 267 611 q 297 614 276 614 q 353 600 329 613 q 381 579 371 590 q 401 551 392 569 q 413 496 414 525 q 410 463 413 472 q 347 289 408 460 q 285 117 289 133 q 281 56 271 71 q 310 53 288 47 q 397 188 364 65 q 411 211 404 210 q 440 213 415 213 q 474 210 471 213 q 474 181 482 204 q 428 79 458 126 q 301 -14 372 -4 q 250 -11 276 -19 q 204 10 222 -3 q 164 81 174 35 q 167 136 158 107 q 228 307 169 147 q 292 482 278 440 q 296 542 306 525 q 267 546 292 553 q 193 458 225 536 q 175 399 175 396 q 169 389 171 390 q 136 386 167 386 l 106 386 l 101 390 q 97 401 97 394 q 121 471 100 424 q 156 531 138 507 q 201 581 174 556 q 267 611 232 604 z "},"j":{"ha":426,"x_min":-43,"x_max":510,"o":"m 432 908 q 467 910 447 913 q 496 893 479 906 q 504 878 501 888 q 510 856 508 872 q 501 817 510 833 q 439 767 482 778 q 365 797 390 754 q 381 875 347 838 q 385 881 382 878 q 432 908 403 901 m 301 611 q 367 610 331 618 q 424 579 400 601 q 458 519 447 556 q 461 485 461 510 l 461 461 l 393 188 q 321 -96 324 -90 q 310 -125 319 -101 q 176 -257 268 -212 q 72 -285 125 -282 q 15 -276 35 -285 q -43 -190 -43 -253 q 11 -104 -43 -129 q 28 -99 19 -101 q 94 -115 68 -87 q 97 -193 121 -144 q 85 -212 93 -204 l 79 -219 l 83 -218 q 110 -210 100 -215 q 179 -136 151 -189 q 228 24 194 -108 q 269 189 240 74 q 342 483 340 471 q 339 536 346 519 q 315 547 332 549 q 279 539 297 547 q 179 408 221 508 q 169 389 172 392 q 136 386 167 386 l 106 386 l 101 390 q 101 414 94 397 q 221 576 144 522 q 301 611 260 604 z "},"k":{"ha":639,"x_min":90,"x_max":699,"o":"m 317 956 q 424 964 425 964 q 440 954 436 964 q 372 671 442 949 q 303 390 303 385 q 335 413 307 390 q 431 506 358 431 q 551 601 500 581 q 626 613 596 619 q 686 550 671 604 q 679 444 699 504 q 675 433 678 439 q 600 383 651 388 q 539 415 556 381 q 533 438 535 422 q 583 519 531 492 q 607 529 596 526 q 617 532 613 529 q 611 546 617 543 q 558 540 600 556 q 478 488 525 531 q 428 436 467 478 q 371 379 372 381 q 353 356 347 357 q 513 235 492 324 q 515 204 515 225 q 510 157 515 183 q 500 86 500 115 q 504 63 501 68 q 529 50 511 50 q 560 65 546 51 q 610 183 585 90 q 622 211 617 210 q 653 213 626 213 q 686 210 683 213 q 686 176 694 204 q 610 29 660 81 q 568 -3 590 8 q 522 -15 549 -12 q 408 36 449 -18 q 388 165 371 93 q 388 224 394 201 q 336 279 378 256 q 285 296 304 293 l 279 297 l 278 292 l 246 164 q 203 15 213 28 q 194 7 200 13 q 143 -15 172 -15 q 93 18 103 -15 q 90 31 90 25 q 189 436 90 40 q 286 860 292 847 q 226 871 276 869 q 188 881 193 871 l 186 885 l 193 913 q 204 944 199 939 q 213 949 208 949 l 317 956 z "},"l":{"ha":356,"x_min":110,"x_max":442,"o":"m 317 956 q 424 964 425 964 q 440 954 436 964 q 340 540 442 949 l 235 118 q 235 67 232 86 q 243 56 238 60 q 256 51 247 51 q 271 54 265 51 q 325 181 297 74 q 336 210 332 207 q 369 213 339 213 q 404 210 400 213 q 407 199 407 207 q 400 165 407 190 q 247 -15 347 -14 q 228 -14 238 -15 q 118 76 142 -3 q 115 142 110 107 l 203 493 q 286 860 292 849 q 226 871 276 869 q 188 881 193 871 l 186 885 l 193 913 q 204 944 199 939 q 213 949 208 949 l 317 956 z "},"m":{"ha":1136,"x_min":96,"x_max":1192,"o":"m 236 611 q 296 610 260 618 q 357 574 335 599 q 383 532 372 558 l 386 526 l 397 538 q 515 607 453 590 q 661 597 596 628 q 703 568 685 586 q 721 540 715 554 l 731 519 l 731 515 l 744 529 q 889 610 808 597 q 981 608 939 619 q 1063 561 1035 597 q 1088 510 1078 542 q 1090 464 1090 497 q 1089 418 1090 428 q 1014 172 1074 336 q 986 67 985 92 q 1001 50 988 51 q 1063 86 1035 47 q 1107 188 1090 125 q 1121 211 1114 210 q 1150 213 1125 213 q 1183 210 1181 213 q 1183 181 1192 204 q 1100 33 1157 88 q 1056 0 1082 15 q 936 -3 994 -31 q 899 26 911 10 q 872 101 872 58 q 893 188 872 128 q 969 447 961 371 q 968 510 975 481 q 940 544 958 538 q 897 547 926 551 q 739 408 806 533 l 728 389 l 683 213 q 635 26 639 33 q 575 -15 617 -10 q 554 -14 564 -17 q 517 29 519 -4 q 561 221 517 40 q 610 418 608 410 q 617 481 617 451 q 599 535 615 518 q 586 544 594 542 q 563 547 581 547 q 518 540 539 547 q 446 494 479 528 q 382 406 413 461 l 372 389 l 329 213 q 274 15 282 26 q 267 7 272 13 q 199 -14 238 -22 q 161 29 164 -4 q 214 254 161 42 q 271 483 268 464 q 268 536 275 519 q 249 549 261 549 q 233 543 240 549 q 210 511 222 536 q 175 399 196 478 q 169 389 171 390 q 136 386 167 386 l 106 386 l 101 390 q 103 424 96 396 q 194 593 139 554 q 236 611 221 610 z "},"n":{"ha":781,"x_min":97,"x_max":836,"o":"m 236 611 q 296 610 260 618 q 353 579 329 601 q 381 539 374 558 l 386 528 l 397 538 q 533 610 457 597 q 625 608 583 619 q 707 561 679 597 q 732 510 722 542 q 735 464 735 497 q 733 418 735 428 q 658 172 718 339 q 632 90 636 113 q 640 51 628 56 q 679 58 657 46 q 751 188 722 85 q 765 211 758 210 q 794 213 769 213 q 828 210 825 213 q 828 181 836 204 q 782 79 813 126 q 656 -14 726 -4 q 604 -11 631 -19 q 543 26 564 -3 q 517 101 517 58 q 538 188 517 128 q 614 447 606 371 q 613 510 619 481 q 585 544 603 538 q 542 547 571 551 q 383 408 450 533 l 372 389 l 328 213 q 279 26 283 33 q 219 -15 261 -10 q 199 -14 208 -17 q 161 29 164 -4 q 214 254 161 42 q 271 483 268 464 q 268 536 275 519 q 250 549 263 546 q 236 544 242 549 q 197 476 215 532 q 175 399 190 457 q 169 389 171 390 q 136 386 167 386 l 106 386 l 101 390 q 97 401 97 394 l 106 433 q 194 593 140 554 q 236 611 217 607 z "},"o":{"ha":710,"x_min":100,"x_max":724,"o":"m 481 613 q 510 614 483 614 q 576 603 547 613 q 719 435 692 564 q 722 382 722 418 q 714 299 724 336 q 647 154 694 221 q 432 -4 561 33 q 364 -15 397 -14 q 181 71 244 -19 q 167 92 172 81 q 171 372 100 211 q 260 500 204 444 q 369 579 313 553 q 481 613 425 607 m 524 546 q 476 547 494 550 q 364 481 408 535 q 294 318 324 432 q 289 299 292 308 q 267 163 267 207 q 269 124 267 133 q 350 51 286 58 q 408 58 378 49 q 525 165 482 82 q 572 307 549 208 q 589 479 603 428 q 524 546 575 531 z "},"p":{"ha":710,"x_min":1,"x_max":725,"o":"m 236 611 q 296 610 260 618 q 353 579 329 601 q 379 542 375 557 l 381 538 l 389 546 q 489 606 435 588 q 617 596 553 626 q 700 510 671 569 q 725 393 725 458 q 724 349 725 360 q 626 119 707 221 q 565 57 597 82 q 431 -11 504 6 q 357 -11 390 -19 q 294 24 318 0 l 285 33 l 231 -185 q 235 -187 231 -187 q 301 -192 247 -192 q 331 -194 328 -192 q 339 -207 339 -197 l 325 -261 q 299 -268 319 -269 q 278 -268 293 -268 q 22 -269 101 -262 l 11 -269 l 7 -265 q 1 -256 1 -260 l 17 -199 q 22 -193 17 -196 l 54 -192 l 56 -192 q 101 -183 94 -190 q 188 144 106 -179 q 271 485 268 468 q 268 536 275 519 q 250 549 263 546 q 236 544 242 549 q 197 476 215 532 q 175 399 190 457 q 169 389 171 390 q 136 386 167 386 l 106 386 l 101 390 q 97 401 97 394 l 106 433 q 194 593 140 554 q 236 611 217 607 m 553 544 q 513 547 540 550 q 431 493 472 536 q 386 438 401 464 q 349 294 385 432 l 315 158 l 317 146 q 376 54 332 71 q 483 92 428 35 q 521 147 506 115 q 569 297 540 185 q 599 460 599 415 q 592 506 599 489 q 553 544 582 533 z "},"q":{"ha":639,"x_min":118,"x_max":708,"o":"m 444 613 l 472 614 l 474 614 q 528 600 504 613 q 569 569 551 589 l 581 558 l 588 565 q 672 608 610 586 q 693 614 692 614 q 707 604 703 614 q 611 208 708 599 q 514 -185 514 -175 q 518 -187 514 -187 q 585 -192 531 -192 q 614 -194 611 -192 q 622 -207 622 -197 l 608 -261 q 581 -268 603 -269 q 557 -268 575 -268 q 324 -267 463 -262 q 303 -268 311 -268 q 258 -261 263 -269 q 261 -229 256 -257 q 276 -194 269 -197 q 317 -192 282 -192 q 388 -179 378 -190 q 415 -74 390 -174 q 442 29 442 28 q 429 21 439 29 q 343 -14 389 -4 q 264 -7 300 -19 q 160 88 194 17 q 143 286 118 172 q 288 536 175 438 q 444 613 363 601 m 474 547 q 364 493 417 557 q 339 454 350 475 q 289 296 318 414 q 263 179 271 229 q 263 107 257 132 q 317 51 276 58 q 374 61 340 47 q 468 154 424 89 l 475 164 l 510 303 l 544 442 l 542 451 q 481 546 529 531 q 474 547 478 547 z "},"r":{"ha":586,"x_min":97,"x_max":669,"o":"m 236 611 q 296 610 260 618 q 340 589 318 604 q 372 554 363 572 l 378 546 l 390 558 q 443 596 417 582 q 546 613 493 621 q 663 525 639 597 q 668 481 669 504 q 632 403 664 428 q 544 390 585 368 q 521 415 528 399 q 515 438 517 422 q 525 481 515 461 q 563 518 540 508 q 571 525 571 522 q 544 542 567 533 q 483 544 515 554 q 388 436 433 526 q 332 229 382 425 q 274 15 282 28 q 267 7 272 13 q 199 -14 238 -22 q 161 29 164 -4 q 214 254 161 42 q 271 483 268 464 q 268 536 275 519 q 250 549 263 546 q 236 544 242 549 q 210 511 222 535 q 175 399 196 478 q 169 389 171 390 q 136 386 167 386 l 106 386 l 101 390 q 97 401 97 394 l 106 435 q 194 593 142 556 q 236 611 217 607 z "},"s":{"ha":568,"x_min":104,"x_max":581,"o":"m 401 611 q 549 572 494 625 q 568 546 561 561 q 581 494 581 522 q 517 404 581 419 q 485 404 500 400 q 446 449 449 413 q 454 488 446 469 q 483 519 468 513 q 489 524 488 522 q 463 542 489 529 q 399 546 432 554 q 333 482 353 533 q 328 444 328 464 q 342 410 331 422 q 394 389 351 399 q 464 368 447 376 q 542 278 522 339 q 549 222 549 256 q 536 157 547 193 q 500 88 525 124 q 443 31 475 53 q 331 -12 394 -3 q 246 -14 292 -18 q 240 -12 243 -12 q 128 49 158 4 q 108 89 111 74 q 106 118 106 97 q 117 172 104 149 q 183 222 136 214 q 207 222 197 224 q 257 176 250 215 q 226 99 264 135 q 210 88 218 92 l 200 82 l 208 76 q 267 53 232 57 q 386 79 338 42 q 429 149 417 104 q 429 189 432 169 q 385 235 419 221 q 340 246 368 240 q 293 258 306 253 q 214 349 233 281 q 211 389 211 361 q 214 431 211 417 q 288 561 235 513 q 401 611 333 603 z "},"t":{"ha":461,"x_min":117,"x_max":521,"o":"m 372 867 q 413 865 392 874 q 439 842 431 858 q 435 783 446 826 q 417 707 431 765 q 389 601 388 600 q 449 599 389 599 l 508 599 l 513 594 q 513 558 521 589 q 504 529 508 538 q 478 521 500 522 q 432 521 468 521 l 369 521 l 368 515 q 271 121 275 153 q 268 90 268 104 q 290 50 268 51 q 310 53 299 50 q 351 72 329 54 q 432 193 400 110 q 447 211 439 210 q 475 213 451 213 q 508 210 506 213 q 508 182 517 203 q 446 76 482 118 q 318 -11 390 6 q 282 -14 307 -14 q 247 -11 257 -14 q 185 22 208 0 q 153 76 163 44 q 150 114 150 88 l 150 140 l 197 329 q 244 519 244 515 q 186 521 244 521 q 119 531 125 521 q 122 561 117 535 q 132 590 131 589 q 161 599 136 599 q 203 599 171 599 l 265 599 l 292 707 q 325 828 318 814 q 372 867 338 856 z "},"u":{"ha":746,"x_min":97,"x_max":797,"o":"m 267 611 q 297 614 276 614 q 353 600 329 613 q 381 579 371 590 q 401 551 392 569 q 413 496 414 525 q 394 419 413 468 q 389 403 393 413 q 321 144 321 214 q 321 135 321 139 q 343 65 322 88 q 385 51 358 51 q 433 63 413 51 q 496 121 469 81 l 504 135 l 556 340 q 618 568 610 556 q 625 576 619 571 q 694 597 656 607 q 731 554 728 586 q 681 340 731 543 q 626 121 632 150 q 625 67 621 82 q 632 56 628 61 q 646 50 636 53 q 660 54 654 50 q 715 182 689 72 q 729 211 724 210 q 760 213 733 213 q 794 210 790 213 q 797 199 797 207 q 775 119 797 179 q 740 49 758 74 q 643 -15 701 -11 q 531 33 572 -18 l 521 46 q 518 51 518 50 l 508 42 q 396 -14 457 -6 q 288 1 336 -21 q 203 111 219 31 q 203 197 197 147 q 204 204 204 201 q 269 417 215 274 q 297 511 294 490 q 290 547 304 543 q 251 540 274 553 q 206 483 222 522 q 175 399 192 458 q 169 389 171 390 q 136 386 167 386 l 106 386 l 101 390 q 97 401 97 394 q 121 471 100 424 q 156 531 138 507 q 201 581 174 556 q 267 611 232 604 z "},"v":{"ha":639,"x_min":97,"x_max":681,"o":"m 600 614 q 671 571 647 624 q 678 551 675 561 q 681 506 681 539 q 656 351 681 450 q 556 94 617 192 q 485 17 521 44 q 426 -11 456 -4 q 386 -14 414 -14 q 310 -4 344 -14 q 201 176 193 36 q 269 417 206 243 q 297 511 294 490 q 290 547 304 543 q 251 540 274 553 q 206 483 222 522 q 175 399 192 458 q 169 389 171 390 q 136 386 167 386 l 106 386 l 101 390 q 97 401 97 394 q 121 471 100 424 q 183 564 146 524 q 239 603 211 590 q 293 613 261 613 q 353 600 328 613 q 381 579 371 590 q 401 551 392 569 q 413 496 414 525 q 394 419 413 468 q 389 403 393 413 q 360 322 365 336 q 331 99 307 165 q 401 50 346 49 q 415 51 408 50 q 469 82 443 56 q 571 324 525 138 q 581 403 583 378 q 543 483 575 451 q 528 504 532 494 q 524 529 524 513 q 526 554 524 546 q 572 604 542 589 q 600 614 583 611 z "},"w":{"ha":922,"x_min":97,"x_max":964,"o":"m 883 614 q 954 571 931 624 q 961 551 958 561 q 964 506 964 539 q 938 343 964 450 q 863 118 899 192 q 689 -15 797 -15 q 533 49 583 -15 l 531 53 l 525 47 q 490 14 504 24 q 439 -11 464 -4 q 304 1 375 -26 q 289 8 296 6 q 244 39 261 22 q 201 163 201 83 q 260 392 201 231 q 269 417 264 403 q 297 511 294 490 q 290 547 304 543 q 251 540 274 553 q 206 483 222 522 q 175 399 192 458 q 169 389 171 390 q 136 386 167 386 l 106 386 l 101 390 q 97 401 97 394 q 121 471 100 424 q 183 564 146 524 q 239 603 211 590 q 293 613 261 613 q 353 600 328 613 q 381 579 371 590 q 401 551 392 569 q 413 496 414 525 q 394 419 413 468 q 389 403 393 413 q 324 171 329 236 q 379 56 317 74 q 439 58 414 43 q 474 93 456 67 q 503 153 504 138 q 507 213 500 163 q 550 388 510 231 q 600 568 590 556 q 607 576 601 571 q 676 597 638 607 q 713 554 710 586 q 674 386 713 544 q 631 210 633 225 q 635 89 615 131 q 665 58 646 65 q 722 54 693 44 q 790 129 761 68 q 851 315 821 192 q 864 403 867 376 q 826 483 858 451 q 811 504 815 494 q 807 529 807 513 q 810 554 807 546 q 856 604 825 589 q 883 614 867 611 z "},"x":{"ha":644,"x_min":74,"x_max":718,"o":"m 306 613 q 401 599 353 619 q 458 551 439 582 l 464 544 l 469 553 q 554 610 504 594 q 665 588 615 626 q 682 572 675 581 q 704 526 699 553 q 697 436 718 481 q 622 383 675 389 q 561 415 578 379 q 556 438 557 422 q 565 481 556 461 q 606 521 576 506 q 618 529 618 526 q 599 544 613 538 q 578 547 592 547 q 557 544 564 547 q 503 471 522 525 l 422 150 q 418 86 413 107 q 478 50 429 49 q 510 57 494 51 q 601 153 565 78 q 617 192 611 172 q 629 211 622 210 q 658 213 633 213 q 692 210 689 213 q 693 186 699 204 q 654 101 682 140 q 478 -15 582 -4 q 472 -15 475 -15 q 343 38 392 -19 q 339 42 340 39 q 329 53 331 51 l 321 43 q 282 10 301 21 q 200 -15 240 -17 q 147 -1 174 -14 q 89 74 103 19 q 114 189 74 143 q 199 213 153 226 q 225 196 215 207 q 228 118 251 167 q 189 78 215 92 q 175 71 176 71 q 196 54 175 65 q 215 51 201 51 q 236 54 229 51 q 289 126 271 72 l 372 454 q 375 493 375 468 q 372 519 375 513 q 301 546 356 556 q 210 476 250 536 q 175 399 186 439 q 169 389 171 390 q 136 386 167 386 l 106 386 l 101 390 q 97 401 97 394 q 136 489 103 438 q 139 494 138 492 q 296 611 200 590 q 306 613 301 611 z "},"y":{"ha":675,"x_min":97,"x_max":731,"o":"m 267 611 q 297 614 276 614 q 353 600 329 613 q 381 579 371 590 q 401 551 392 569 q 413 496 414 525 q 394 419 413 468 q 389 403 393 413 q 321 144 321 214 q 321 135 321 139 q 343 65 322 88 q 385 51 358 51 q 433 63 413 51 q 496 121 469 81 l 504 135 l 556 340 q 618 568 610 556 q 625 576 619 571 q 694 597 656 607 q 731 554 728 586 q 661 264 731 544 q 585 -33 593 -8 q 542 -119 571 -79 q 519 -151 532 -136 q 460 -211 492 -186 q 332 -276 400 -261 q 269 -283 307 -283 q 226 -281 240 -283 q 121 -181 133 -260 q 131 -112 117 -146 q 206 -61 153 -67 q 267 -93 250 -57 q 272 -115 271 -100 q 246 -182 274 -151 q 226 -196 233 -192 q 219 -200 221 -199 l 243 -214 q 358 -192 300 -233 q 468 -11 431 -137 q 474 10 471 4 l 474 15 l 463 10 q 315 -8 396 -29 q 203 111 224 14 q 203 197 197 147 q 204 204 204 201 q 269 417 215 274 q 297 511 294 490 q 290 547 304 543 q 251 540 274 553 q 206 483 222 522 q 175 399 192 458 q 169 389 171 390 q 136 386 167 386 l 106 386 l 101 390 q 97 401 97 394 q 121 471 100 424 q 156 531 138 507 q 201 581 174 556 q 267 611 232 604 z "},"z":{"ha":568,"x_min":65,"x_max":650,"o":"m 339 613 l 364 614 l 365 614 q 446 571 406 613 q 458 558 451 565 q 507 528 488 531 q 518 528 515 525 q 569 603 528 531 q 590 614 575 614 q 610 614 596 614 l 639 614 l 643 610 q 639 583 650 603 q 633 572 638 579 q 572 485 610 531 q 407 304 513 410 q 263 156 304 204 l 247 139 l 251 138 q 325 124 282 136 q 413 110 385 110 q 444 113 436 110 q 538 186 513 131 q 540 194 539 190 q 556 211 546 210 q 582 213 561 213 q 614 210 610 213 q 619 193 621 204 q 579 103 610 149 q 506 25 546 53 q 446 -6 474 3 q 351 -6 389 -25 q 304 31 333 3 q 256 69 275 60 q 217 69 238 75 q 150 3 182 57 q 139 -14 144 -8 q 106 -15 136 -15 l 76 -15 l 72 -11 q 78 19 65 -4 q 81 25 79 22 q 267 254 139 122 q 342 329 299 286 q 458 450 433 421 l 471 464 l 463 467 l 421 476 q 347 490 369 489 q 260 454 279 493 q 254 444 256 444 q 222 440 250 440 q 188 443 192 440 q 190 482 178 450 q 243 560 208 528 q 339 613 286 603 z "},"{":{"ha":710,"x_min":124,"x_max":774,"o":"m 139 399 l 143 403 l 451 403 q 764 400 760 403 q 767 369 774 394 q 760 346 760 347 q 749 340 757 340 q 443 338 728 338 q 129 342 135 338 q 126 347 128 342 q 129 372 124 351 q 139 399 133 393 z "},"|":{"ha":1419,"x_min":160,"x_max":1447,"o":"m 175 399 l 179 403 l 806 403 q 1438 400 1433 403 q 1440 369 1447 394 q 1428 339 1433 342 l 356 338 q 168 339 169 338 q 163 347 163 344 q 165 372 160 351 q 175 399 169 393 z "},"}":{"ha":710,"x_min":358,"x_max":800,"o":"m 515 968 l 533 969 l 535 969 q 558 964 551 968 q 583 939 575 956 q 588 918 588 929 q 582 894 588 907 q 572 878 575 881 l 424 701 q 396 701 415 693 q 386 707 393 704 q 361 724 363 718 q 360 733 358 728 l 472 933 q 515 968 488 958 m 728 968 l 746 969 l 747 969 q 771 964 764 968 q 796 939 788 956 q 800 918 800 929 q 794 894 800 907 q 785 878 788 881 l 636 701 q 608 701 628 693 q 599 707 606 704 q 574 724 575 718 q 572 733 571 728 l 685 933 q 728 968 700 958 z "},"~":{"ha":710,"x_min":339,"x_max":794,"o":"m 490 925 q 528 925 510 929 q 586 894 549 921 q 619 872 604 878 q 643 865 628 867 q 729 911 678 864 q 746 926 738 918 q 764 924 754 931 q 790 886 794 899 q 715 810 781 871 q 701 799 706 801 q 642 768 667 774 q 549 800 599 760 q 514 822 526 817 q 490 829 506 828 q 404 783 456 831 q 388 768 396 776 q 369 771 379 764 q 343 808 339 796 q 418 885 353 824 q 432 896 428 893 q 490 925 468 921 z "},"":{"ha":426,"x_min":97,"x_max":482,"o":"m 267 611 q 297 614 276 614 q 353 600 329 613 q 381 579 371 590 q 401 551 392 569 q 413 496 414 525 q 410 463 413 472 q 347 289 408 460 q 285 117 289 133 q 281 56 271 71 q 310 53 288 47 q 397 188 364 65 q 411 211 404 210 q 440 213 415 213 q 474 210 471 213 q 474 181 482 204 q 428 79 458 126 q 301 -14 372 -4 q 250 -11 276 -19 q 204 10 222 -3 q 164 81 174 35 q 167 136 158 107 q 228 307 169 147 q 292 482 278 440 q 296 542 306 525 q 267 546 292 553 q 193 458 225 536 q 175 399 175 396 q 169 389 171 390 q 136 386 167 386 l 106 386 l 101 390 q 97 401 97 394 q 121 471 100 424 q 156 531 138 507 q 201 581 174 556 q 267 611 232 604 z "},"":{"ha":1226,"x_min":81,"x_max":1318,"o":"m 607 946 l 611 949 l 960 949 l 1308 949 l 1313 944 q 1318 936 1314 943 l 1274 615 q 1268 606 1272 607 l 1264 601 l 1235 601 l 1206 601 l 1201 606 q 1196 613 1199 607 q 1199 644 1196 614 q 1201 814 1217 772 q 1110 868 1186 856 q 1019 869 1096 869 q 928 863 933 871 l 835 496 l 932 496 q 996 517 971 500 q 1049 626 1025 538 q 1057 651 1053 643 q 1093 657 1061 657 q 1129 647 1125 657 l 1132 643 l 1085 456 q 1036 263 1040 271 q 1000 254 1033 254 q 963 264 967 254 q 964 289 960 268 q 968 397 985 379 q 946 410 961 406 q 860 417 926 417 l 814 417 l 774 251 q 732 82 732 90 q 740 79 732 79 l 893 79 q 1038 132 981 88 q 1161 358 1092 174 q 1176 389 1172 385 l 1181 393 l 1210 393 l 1239 393 l 1243 389 q 1243 367 1249 383 q 1176 192 1236 344 q 1104 7 1104 6 q 1060 1 1101 1 q 790 0 1021 0 l 485 0 l 481 4 q 481 40 472 10 q 489 69 485 61 q 519 78 492 78 q 579 82 567 78 q 590 93 586 83 q 632 253 596 107 q 672 415 672 414 q 582 417 672 417 l 493 417 l 413 275 q 331 126 335 139 q 333 96 322 107 q 390 78 351 78 q 404 74 399 78 q 408 64 408 68 l 396 8 q 365 1 392 0 q 344 1 360 1 q 139 3 256 7 q 121 1 128 1 q 82 10 88 0 q 86 42 81 14 q 99 74 93 68 q 114 78 103 78 q 140 79 132 78 q 253 138 218 88 q 463 508 250 135 l 667 871 l 633 871 q 592 879 596 871 q 594 911 589 883 q 607 946 601 940 m 775 864 l 757 868 l 747 868 l 643 685 q 538 497 538 499 l 536 494 l 614 494 l 693 494 l 738 676 q 783 861 783 863 l 776 864 l 775 864 z "},"":{"ha":1368,"x_min":190,"x_max":1460,"o":"m 771 978 q 801 978 776 981 q 889 965 840 978 l 956 951 q 1210 949 967 950 l 1451 949 l 1456 944 l 1460 936 l 1415 615 q 1410 606 1414 607 l 1406 601 l 1376 601 l 1347 601 l 1343 606 q 1338 613 1340 607 q 1340 644 1338 614 q 1339 821 1360 776 l 1325 836 q 1274 863 1307 854 q 1144 871 1240 871 q 1046 863 1051 871 q 1003 696 1044 861 l 961 532 l 1018 532 q 1136 543 1107 532 q 1200 611 1179 557 q 1217 664 1208 632 q 1224 688 1222 686 q 1261 694 1228 694 l 1289 694 l 1294 690 q 1299 681 1299 685 q 1251 488 1299 671 q 1200 296 1206 300 l 1196 292 l 1168 292 q 1129 301 1135 292 q 1132 328 1128 307 q 1139 425 1150 401 q 1115 444 1133 438 q 1025 454 1097 453 l 1013 454 l 942 454 l 896 269 q 850 82 850 83 q 861 79 850 79 l 1043 81 q 1168 125 1119 89 q 1293 332 1226 167 q 1299 346 1296 339 q 1318 389 1313 383 l 1322 393 l 1351 393 l 1381 393 l 1385 389 q 1385 367 1390 383 q 1318 192 1378 344 q 1246 7 1246 6 q 1193 1 1243 1 q 985 0 1196 1 l 731 -1 l 708 -4 l 650 -15 q 544 -29 585 -29 q 472 -22 506 -29 q 276 122 343 6 q 247 485 190 274 q 299 618 265 553 q 539 893 383 788 q 753 976 643 963 q 771 978 760 978 m 808 913 q 761 913 783 915 q 618 844 690 906 q 451 613 514 758 q 386 313 388 468 q 388 278 386 294 q 494 51 399 101 q 513 43 503 46 q 571 35 535 35 q 696 94 660 39 q 754 244 726 142 l 869 708 q 882 871 897 826 q 869 888 878 879 q 808 913 849 908 z "},"":{"ha":1154,"x_min":650,"x_max":940,"o":"m 799 993 q 858 992 831 996 q 936 928 917 979 q 940 901 938 922 q 928 849 940 874 q 894 804 918 828 q 750 753 832 744 q 679 782 707 756 q 650 843 651 807 q 651 868 650 861 q 740 974 667 935 q 799 993 768 988 m 843 932 l 776 932 q 732 897 744 928 q 725 874 729 888 q 724 825 715 835 q 781 813 732 813 q 850 833 838 813 q 854 840 853 836 q 871 903 868 868 q 868 919 871 915 q 843 932 863 929 z "},"":{"ha":871,"x_min":71,"x_max":979,"o":"m 307 942 q 640 944 310 944 l 969 944 l 975 940 q 979 929 979 935 l 933 606 q 928 600 929 601 q 897 597 925 597 q 864 600 868 597 q 860 638 856 606 q 869 733 868 692 q 863 806 869 783 q 775 861 847 850 q 647 867 743 867 q 563 860 567 865 l 368 88 l 368 86 q 460 78 372 79 l 514 78 l 518 74 q 518 35 526 68 q 508 7 510 8 q 472 1 504 0 q 450 1 467 1 q 96 0 213 7 l 81 0 l 76 4 q 71 15 71 10 q 85 69 71 38 q 138 78 101 78 q 208 83 200 79 q 219 100 215 88 q 315 476 229 126 q 410 860 411 860 q 325 867 403 867 l 297 867 l 292 871 q 293 910 285 879 q 307 942 301 939 z "},"":{"ha":1136,"x_min":94,"x_max":1044,"o":"m 779 992 q 817 994 785 994 q 858 988 851 994 q 953 499 861 985 q 1043 10 1044 13 q 1038 3 1043 6 l 1035 0 l 568 0 q 100 3 103 0 q 103 19 94 8 l 768 983 q 779 992 769 985 m 797 471 l 733 811 l 265 132 q 563 131 265 131 q 861 132 861 131 l 797 471 z "},"":{"ha":1065,"x_min":193,"x_max":1096,"o":"m 750 978 q 826 975 788 982 q 1033 843 960 956 q 1068 772 1058 804 q 1094 629 1093 706 q 1058 414 1096 522 q 888 139 1007 260 q 654 -8 779 32 q 343 26 474 -68 q 307 57 324 40 q 208 371 193 171 q 279 618 218 494 q 522 894 368 794 q 750 978 632 967 m 797 910 q 736 913 768 917 q 504 756 608 894 q 492 738 499 747 q 379 461 421 631 q 354 269 353 351 q 374 160 356 207 q 515 39 414 54 q 700 93 606 25 q 863 301 800 167 q 944 608 928 447 q 946 622 946 615 q 944 726 951 678 q 882 865 928 817 q 797 910 846 900 m 485 583 l 489 588 l 518 588 l 547 588 l 551 583 q 554 557 560 578 q 550 542 550 543 q 668 540 550 540 l 786 540 l 790 560 q 800 583 796 581 l 804 588 l 833 588 l 863 588 l 867 583 q 872 575 868 582 q 847 471 872 571 q 818 367 822 369 l 814 363 l 785 363 l 756 363 l 751 367 q 749 393 743 372 q 753 408 753 407 q 635 410 753 410 l 517 410 l 513 390 q 503 367 507 369 l 499 363 l 469 363 l 440 363 l 436 367 q 431 375 435 368 q 456 481 431 379 q 485 583 481 581 z "},"":{"ha":961,"x_min":81,"x_max":900,"o":"m 693 992 q 729 994 699 994 q 767 988 763 994 q 783 536 771 982 q 797 86 794 89 q 803 82 799 85 q 867 78 814 78 l 890 78 l 896 74 q 900 64 900 67 l 888 8 q 858 1 883 0 q 838 1 853 1 q 592 3 750 7 q 568 1 578 1 q 515 10 522 0 l 514 14 l 521 42 q 531 74 528 68 l 536 78 l 565 78 q 607 81 596 81 q 640 90 633 86 q 633 394 643 93 l 625 708 l 625 719 l 469 426 q 311 125 315 139 q 329 88 300 100 q 369 78 344 81 q 393 68 388 78 q 389 36 394 64 q 376 4 382 10 l 372 0 l 357 0 q 158 3 247 6 l 99 0 q 86 4 90 0 q 81 14 81 10 l 93 68 q 113 78 97 78 q 163 85 138 78 q 236 139 208 94 q 461 564 240 146 q 685 985 681 981 q 693 992 690 990 z "},"":{"ha":922,"x_min":103,"x_max":1049,"o":"m 343 936 l 347 940 l 692 940 q 1046 932 1039 940 q 1028 821 1049 926 q 1004 711 1004 713 q 999 704 1004 707 q 967 701 996 701 l 938 701 l 933 706 q 928 713 931 707 q 932 743 928 719 q 942 807 942 792 l 942 817 l 936 817 q 649 821 918 821 q 392 815 403 819 q 358 735 383 811 q 347 706 351 710 l 343 701 l 314 701 l 285 701 l 281 706 q 275 714 279 707 q 304 821 275 717 q 338 928 325 890 q 343 936 338 933 m 368 610 l 372 614 l 401 614 l 431 614 l 435 610 q 436 579 442 604 q 435 574 436 576 l 428 549 l 599 549 l 768 550 l 775 578 q 788 610 782 607 l 792 614 l 821 614 l 850 614 l 854 610 l 860 603 q 832 486 860 599 q 799 368 803 371 l 794 364 l 765 364 l 736 364 l 732 368 q 731 399 725 374 q 732 404 731 401 l 739 429 l 568 429 l 399 429 l 392 400 q 379 368 385 371 l 375 364 l 346 364 l 317 364 l 313 368 l 307 375 q 335 492 307 379 q 368 610 364 607 m 156 251 q 188 254 158 254 l 217 254 l 221 250 q 226 243 224 249 q 221 210 226 233 q 210 133 210 147 l 211 125 l 217 124 q 510 119 240 119 q 769 125 756 121 q 781 140 774 126 q 810 224 793 163 q 821 250 815 244 l 825 254 l 854 254 l 883 254 l 888 250 q 893 242 889 249 q 861 125 893 235 q 826 10 826 7 q 821 3 825 7 q 464 0 817 0 l 113 0 l 107 4 q 103 14 103 11 l 150 244 q 156 251 150 249 z "},"":{"ha":1032,"x_min":71,"x_max":1197,"o":"m 307 942 q 749 944 310 944 l 1188 944 l 1193 940 q 1197 929 1197 935 q 1183 875 1197 907 q 1132 867 1167 867 q 1060 861 1068 865 q 1049 844 1053 857 q 953 468 1039 818 q 858 85 857 85 q 943 78 865 78 l 971 78 l 976 74 q 981 63 981 67 q 967 8 981 40 q 938 1 963 0 q 914 1 932 1 q 586 0 707 7 l 571 0 l 567 4 q 561 15 561 10 q 575 69 561 38 q 628 78 592 78 q 699 83 690 79 q 710 100 706 88 q 807 478 719 128 q 903 865 903 864 q 732 867 903 867 l 561 867 l 464 476 q 368 85 365 85 q 453 78 375 78 l 481 78 l 486 74 q 490 63 490 68 q 476 8 490 40 q 447 1 472 0 q 424 1 442 1 q 96 0 217 7 l 81 0 l 76 4 q 71 15 71 10 q 85 69 71 38 q 138 78 101 78 q 208 83 200 79 q 219 100 215 88 q 315 476 229 126 q 410 860 411 860 q 325 867 403 867 l 297 867 l 292 871 q 293 910 285 879 q 307 942 301 939 z "},"":{"ha":994,"x_min":111,"x_max":1086,"o":"m 349 946 q 714 949 351 949 l 1076 949 l 1081 944 q 1086 936 1082 943 l 1042 615 q 1036 606 1040 607 l 1032 601 l 1003 601 l 974 601 l 969 606 q 967 639 964 610 q 946 822 986 775 q 893 856 928 844 q 713 871 847 869 q 640 871 685 871 q 510 868 510 871 q 596 671 508 869 l 682 475 l 681 469 l 681 468 l 297 100 l 289 92 l 447 92 q 657 99 615 93 q 818 185 761 114 q 822 190 819 188 q 889 326 856 235 l 899 354 q 936 361 903 361 l 964 361 l 969 357 q 974 347 974 350 l 854 7 q 817 1 851 1 q 482 0 774 0 l 121 0 l 115 4 q 111 15 111 11 q 124 35 111 22 l 333 235 l 529 424 q 429 656 529 422 l 328 885 l 333 911 q 349 946 343 943 z "},"":{"ha":1065,"x_min":297,"x_max":1157,"o":"m 508 976 q 583 974 544 983 q 682 886 653 954 q 706 715 713 819 q 704 685 704 699 l 711 699 q 754 786 733 750 q 836 896 793 853 q 963 971 896 956 q 1028 979 989 979 q 1082 965 1056 978 q 1156 832 1151 931 q 1151 774 1157 804 q 1139 747 1147 753 q 1107 743 1133 743 q 1071 750 1075 743 q 1072 767 1069 754 q 1035 844 1082 819 q 1015 851 1026 849 q 907 833 963 865 q 763 604 821 781 q 731 492 743 542 l 629 89 q 646 82 628 83 q 724 78 665 79 l 778 78 l 782 72 q 786 64 786 68 l 774 8 q 744 1 769 0 q 713 1 736 1 q 328 0 468 7 l 310 0 l 306 4 q 300 14 300 10 l 313 69 q 344 78 317 78 q 378 78 353 78 q 478 89 464 79 q 531 286 482 92 q 599 564 589 517 q 615 708 615 649 q 599 803 615 765 q 544 849 582 838 q 414 821 472 871 q 376 765 389 800 q 360 744 369 747 q 328 743 356 743 q 300 747 304 743 q 297 756 297 749 q 319 822 297 775 q 468 965 372 929 q 508 976 488 974 z "},"":{"ha":994,"x_min":221,"x_max":1038,"o":"m 506 947 q 531 949 508 949 q 908 947 704 942 q 961 940 956 949 q 958 908 964 936 q 946 875 951 879 q 888 871 942 871 q 785 858 797 869 q 765 793 782 856 q 749 728 750 729 q 765 724 749 725 q 883 688 828 714 q 1003 565 978 640 q 938 361 1038 461 q 821 281 890 315 q 631 224 736 239 l 624 224 l 607 158 l 590 90 q 593 85 589 86 q 683 78 603 79 l 738 78 l 742 72 q 746 64 746 68 l 733 8 q 704 1 729 0 q 674 1 696 1 q 296 0 435 7 l 278 0 l 274 4 q 268 14 268 10 l 281 69 q 313 78 285 78 q 346 78 321 78 q 446 89 432 79 q 467 158 450 92 l 483 224 l 463 226 q 278 310 346 243 q 238 364 251 335 q 221 428 222 393 q 222 461 221 451 q 272 563 233 515 q 333 621 296 594 q 596 724 444 704 l 608 725 l 610 731 q 642 861 642 867 q 550 871 642 869 l 496 871 l 490 876 q 492 914 483 883 q 506 947 500 943 m 592 657 q 576 657 592 660 q 472 617 514 646 q 428 572 446 601 q 390 490 403 533 q 382 361 367 408 q 442 304 396 324 q 493 290 467 293 l 500 289 l 544 472 q 592 657 592 651 m 750 657 q 735 660 736 660 q 647 318 729 660 q 640 289 640 290 q 683 297 647 289 q 806 378 767 318 q 851 506 836 422 q 853 578 858 542 q 832 617 846 603 q 750 657 801 647 z "},"":{"ha":1065,"x_min":282,"x_max":1143,"o":"m 542 947 q 567 949 544 949 q 944 947 740 942 q 997 940 992 949 q 994 908 1000 936 q 982 875 988 879 q 924 871 978 871 q 821 858 833 869 q 749 579 817 856 q 678 300 678 301 q 686 300 678 297 q 792 374 750 322 q 890 572 857 446 q 982 743 925 715 q 999 749 990 746 q 1069 751 1008 751 q 1140 742 1135 751 q 1138 717 1143 738 q 1122 688 1132 690 q 1115 686 1119 686 q 1078 667 1093 685 q 1061 647 1064 653 q 1028 564 1042 617 q 935 372 1001 454 q 692 229 843 257 l 664 224 l 660 224 l 643 158 l 626 90 q 629 85 625 86 q 719 78 639 79 l 774 78 l 778 72 q 782 64 782 68 l 769 8 q 740 1 765 0 q 710 1 732 1 q 332 0 471 7 l 314 0 l 310 4 q 304 14 304 10 l 317 69 q 349 78 321 78 q 382 78 357 78 q 482 89 468 79 q 503 158 486 92 q 519 225 519 224 l 503 228 q 313 404 340 258 q 307 474 306 436 q 321 571 308 511 q 329 656 333 624 q 300 686 324 682 q 283 696 288 688 q 286 719 282 701 q 299 749 293 744 q 367 751 301 751 q 439 747 428 751 q 474 710 464 736 q 476 672 476 700 q 463 572 476 632 q 447 494 451 529 q 457 372 438 424 q 486 326 467 346 q 526 299 503 310 l 538 294 l 607 576 q 678 860 678 857 q 586 871 678 869 l 532 871 l 526 876 q 528 914 519 883 q 542 947 536 943 z "},"":{"ha":994,"x_min":139,"x_max":1058,"o":"m 708 978 q 797 975 738 983 q 969 899 901 958 q 1050 758 1031 844 q 1053 665 1058 715 q 986 493 1042 585 q 849 308 946 425 q 749 176 776 219 q 713 119 721 136 q 756 118 713 118 l 807 121 q 831 131 826 125 q 874 221 850 167 q 889 249 882 242 l 893 253 l 921 253 q 953 250 950 253 q 961 238 961 247 q 911 121 961 233 q 857 3 860 4 q 733 0 853 0 l 614 0 l 608 4 q 610 40 601 13 q 722 292 640 140 q 764 369 724 294 q 892 700 878 572 q 893 707 893 704 q 890 788 899 753 q 825 888 876 856 q 643 897 750 938 q 622 889 632 893 q 540 832 575 867 q 415 544 436 735 q 414 336 407 474 q 413 96 422 171 q 396 8 407 32 q 368 0 392 1 q 267 0 350 0 l 149 0 l 143 4 q 139 17 139 8 l 153 235 q 158 249 153 243 l 163 253 l 190 253 q 229 244 225 253 q 229 218 231 240 l 228 131 q 233 122 228 124 q 304 118 247 118 l 343 118 l 343 126 q 331 211 343 154 q 300 321 325 233 q 256 507 261 447 q 257 597 250 550 q 344 789 274 700 q 418 863 374 826 q 689 976 546 961 q 708 978 697 978 z "},"":{"ha":851,"x_min":-31,"x_max":1051,"o":"m 544 978 q 621 975 575 982 q 718 915 694 960 q 718 828 742 875 q 701 804 713 814 q 678 786 688 790 q 604 785 639 768 q 578 824 582 799 q 604 896 571 861 l 614 907 l 606 908 q 493 894 546 926 q 464 847 475 882 q 424 671 449 804 q 410 601 410 603 l 410 599 l 554 599 l 697 600 l 701 619 l 733 776 q 769 876 750 840 q 885 974 811 951 q 904 978 894 976 q 981 968 942 985 q 1046 897 1033 949 q 1046 851 1051 875 q 1038 828 1046 842 q 1021 804 1032 814 q 997 786 1007 790 q 924 785 958 768 q 897 824 901 799 q 925 899 892 864 q 933 906 929 903 l 939 910 l 933 911 q 906 911 915 915 q 883 888 893 906 q 840 693 875 874 q 822 603 822 604 l 822 599 l 896 599 q 981 589 975 599 q 976 557 983 585 q 965 525 969 528 l 961 521 l 885 521 l 807 521 l 806 514 q 772 340 806 510 q 708 31 725 92 q 621 -181 674 -117 q 471 -281 556 -262 q 463 -282 467 -282 q 343 -261 397 -293 q 307 -222 319 -249 q 307 -133 283 -181 q 324 -110 313 -119 q 347 -92 338 -96 q 421 -90 386 -74 q 446 -154 456 -108 q 443 -165 444 -160 q 421 -203 438 -183 l 408 -214 l 418 -217 q 467 -215 450 -222 q 531 -158 501 -203 q 539 -146 536 -153 q 575 -24 553 -119 q 650 353 596 68 l 683 521 l 539 521 l 394 521 l 363 350 q 294 18 307 71 q 189 -228 250 -161 q 181 -237 185 -233 q 42 -278 115 -303 q -22 -224 -3 -264 q -31 -182 -31 -203 q -19 -133 -31 -156 q -3 -110 -14 -119 q 21 -92 11 -96 q 94 -90 60 -74 q 119 -154 129 -108 q 117 -165 118 -160 q 82 -212 107 -197 q 90 -219 75 -217 q 106 -215 100 -219 q 126 -183 119 -206 q 138 -132 132 -169 q 181 71 147 -67 q 238 353 207 192 q 271 518 271 517 q 206 521 271 521 l 140 521 l 135 525 q 131 535 131 531 l 146 592 q 188 599 149 599 q 219 599 196 599 l 286 599 l 289 619 q 318 763 314 744 q 436 942 351 892 q 451 950 443 946 q 544 978 497 972 z "},"":{"ha":781,"x_min":-31,"x_max":844,"o":"m 596 978 q 692 976 636 981 q 779 951 747 968 q 842 857 844 919 q 775 767 838 788 q 769 765 772 767 q 703 782 729 754 q 700 860 676 811 q 728 893 710 882 q 717 901 733 896 q 617 913 686 913 q 519 900 547 913 q 464 836 482 886 q 453 804 458 824 q 424 671 442 768 q 410 601 410 603 l 410 599 l 589 599 l 767 599 l 771 594 q 775 586 775 590 q 719 360 775 582 q 661 121 664 138 q 660 67 656 82 q 668 56 663 60 q 681 51 672 51 q 696 54 690 51 q 750 181 722 74 q 761 210 757 207 q 794 213 764 213 q 829 210 825 213 q 832 199 832 207 q 825 165 832 190 q 672 -15 772 -14 q 653 -14 663 -15 q 543 76 569 -3 q 540 114 540 88 l 540 140 l 588 329 q 635 519 635 515 q 515 521 635 521 q 394 519 394 521 q 321 140 394 508 q 210 -203 271 -115 q 181 -237 196 -221 q 42 -278 115 -303 q -22 -224 -3 -264 q -31 -182 -31 -203 q -19 -133 -31 -156 q -3 -110 -14 -119 q 21 -92 11 -96 q 94 -90 60 -74 q 119 -154 129 -108 q 117 -165 118 -160 q 82 -212 107 -197 q 90 -219 75 -217 q 106 -215 100 -219 q 126 -183 119 -206 q 138 -132 132 -169 q 181 71 147 -67 q 238 353 207 192 q 271 518 271 517 q 206 521 271 521 l 140 521 l 135 525 q 131 535 131 531 l 146 592 q 188 599 149 599 q 219 599 196 599 l 286 599 l 294 647 q 346 832 319 776 q 596 978 414 965 z "},"":{"ha":817,"x_min":-33,"x_max":903,"o":"m 556 978 q 717 946 656 989 q 724 942 721 944 q 757 875 757 913 q 757 869 757 871 q 768 910 758 871 q 781 957 781 954 q 824 964 783 964 q 843 964 829 964 l 894 964 l 899 960 q 903 953 903 956 q 801 543 903 951 q 697 121 699 129 q 696 67 692 82 q 703 56 697 61 q 717 50 706 53 q 731 54 725 50 q 786 182 760 72 q 800 211 794 210 q 831 213 804 213 q 865 210 861 213 q 868 199 868 207 q 846 119 868 179 q 811 49 829 74 q 685 -14 761 -26 q 639 1 654 -6 q 579 76 596 24 q 576 114 576 88 l 576 140 l 624 329 q 671 519 671 515 q 533 521 671 521 l 394 521 l 368 378 q 290 3 310 74 q 213 -197 258 -131 q 83 -285 156 -285 q 4 -258 38 -285 q -28 -206 -21 -237 q -28 -157 -33 -181 q -19 -133 -28 -147 q -3 -110 -14 -119 q 21 -92 11 -96 q 94 -90 60 -74 q 119 -154 129 -108 q 117 -165 118 -160 q 82 -212 107 -197 q 89 -219 75 -218 q 104 -217 99 -219 q 129 -175 122 -206 q 136 -143 131 -171 q 176 53 146 -75 q 238 349 201 160 q 271 518 271 517 l 271 521 l 206 521 l 140 521 l 136 525 q 136 561 128 531 q 144 590 140 582 q 171 599 149 597 q 219 599 182 599 l 286 599 l 292 629 q 342 831 321 782 q 454 949 376 908 q 556 978 503 972 m 619 911 l 557 913 q 496 893 519 908 q 472 868 481 883 q 422 658 454 829 q 411 601 411 610 q 417 600 410 600 q 550 599 426 599 l 692 599 l 719 713 q 749 829 749 832 q 744 824 749 831 q 729 803 742 819 q 706 786 714 790 q 632 785 667 768 q 606 824 610 799 q 631 894 599 860 l 640 906 l 636 907 l 619 911 z "},"":{"ha":1225,"x_min":-31,"x_max":1286,"o":"m 565 978 l 642 976 q 746 928 717 963 q 754 828 782 883 q 738 804 749 814 q 714 786 724 790 q 640 785 675 768 q 614 824 618 799 q 639 894 607 860 l 649 906 l 636 908 q 507 900 560 925 q 471 863 481 885 q 468 856 469 860 q 425 675 450 811 l 410 603 l 410 599 l 561 599 q 713 600 713 599 l 742 743 q 792 863 758 811 q 857 926 818 903 q 1067 979 936 979 q 1244 939 1185 979 q 1276 903 1264 926 q 1286 857 1286 882 q 1219 767 1282 788 q 1214 765 1217 767 q 1147 782 1174 754 q 1144 860 1121 811 q 1172 893 1154 882 q 1161 901 1178 896 q 1053 914 1124 914 q 919 883 956 914 q 872 774 893 861 q 842 624 864 743 l 836 600 l 1025 599 l 1213 599 l 1217 594 q 1219 586 1219 589 q 1164 360 1219 582 q 1106 121 1108 138 q 1104 69 1100 86 q 1129 50 1110 49 q 1139 54 1133 51 q 1194 182 1168 72 q 1208 211 1203 210 q 1239 213 1213 213 q 1274 210 1269 213 q 1276 199 1276 207 q 1254 119 1276 179 q 1218 47 1233 68 q 1093 -14 1169 -26 q 988 76 1011 1 q 985 114 985 88 l 985 140 l 1032 329 q 1079 519 1079 515 q 950 521 1079 521 l 821 521 l 794 378 q 722 25 738 92 q 635 -179 686 -118 q 511 -272 581 -244 q 354 -265 428 -303 q 325 -244 338 -257 q 307 -221 311 -231 q 296 -179 296 -200 q 307 -133 296 -154 q 324 -110 313 -119 q 347 -92 338 -96 q 421 -90 386 -74 q 446 -154 456 -108 q 443 -165 444 -160 q 421 -201 438 -185 l 410 -212 l 417 -215 q 451 -219 446 -219 q 506 -199 476 -219 q 554 -140 540 -172 q 596 8 572 -103 q 661 331 611 71 q 697 518 697 517 l 697 521 l 546 521 l 394 521 l 393 514 q 358 333 393 513 q 290 0 306 60 q 181 -236 247 -168 q 176 -240 179 -237 q 132 -272 160 -258 q 82 -283 107 -285 q 25 -271 50 -283 q -22 -224 -7 -257 q -31 -182 -31 -203 q -19 -133 -31 -156 q -3 -110 -14 -119 q 21 -92 11 -96 q 94 -90 60 -74 q 119 -154 129 -108 q 117 -165 118 -160 q 94 -201 111 -185 q 81 -214 93 -203 l 78 -217 l 89 -219 q 106 -215 100 -219 q 135 -149 126 -201 q 169 29 144 -75 l 201 163 l 269 518 q 204 521 269 521 l 140 521 l 135 525 q 131 536 131 531 q 144 590 131 558 q 168 597 147 597 q 218 599 163 597 l 285 600 l 297 658 q 313 738 306 706 q 358 863 329 814 q 456 950 393 918 q 565 978 503 972 z "},"":{"ha":1242,"x_min":-31,"x_max":1328,"o":"m 551 978 l 607 978 q 719 915 692 965 q 718 828 739 872 q 701 804 713 814 q 678 786 688 790 q 604 785 639 768 q 578 824 582 799 q 604 896 571 861 l 614 907 l 606 908 q 497 897 547 925 q 482 886 488 892 q 444 774 465 871 q 410 600 410 618 q 561 599 410 599 l 711 600 l 718 635 q 743 756 739 739 q 781 856 757 813 q 975 976 840 960 q 1026 979 1000 979 q 1144 946 1097 976 q 1182 875 1182 918 q 1182 869 1182 871 q 1193 910 1183 871 q 1206 957 1206 954 q 1249 964 1208 964 q 1268 964 1254 964 l 1319 964 l 1324 960 q 1328 953 1328 956 q 1226 543 1328 951 q 1122 121 1124 129 q 1121 67 1117 82 q 1140 50 1128 51 q 1154 53 1149 50 q 1211 181 1182 69 q 1222 210 1218 207 q 1256 213 1225 213 q 1290 210 1286 213 q 1293 199 1293 207 q 1286 165 1293 190 q 1139 -15 1235 -11 q 1065 1 1103 -17 q 1004 76 1021 24 q 1001 114 1001 88 l 1001 140 l 1049 329 q 1096 519 1096 515 q 958 521 1096 521 l 821 521 l 819 514 q 785 333 819 513 q 744 129 750 150 q 669 -125 710 -46 q 631 -185 654 -154 q 476 -282 561 -262 q 372 -274 425 -292 q 297 -200 310 -251 q 306 -133 288 -167 q 322 -110 311 -119 q 346 -92 336 -96 q 419 -90 385 -74 q 444 -154 454 -108 q 442 -165 443 -160 q 419 -201 436 -185 l 408 -212 l 415 -214 q 457 -219 431 -219 q 528 -178 492 -215 q 553 -144 547 -154 q 614 94 575 -99 l 696 518 q 546 521 696 521 l 394 521 l 394 518 q 357 324 393 517 q 315 110 317 117 q 210 -200 265 -122 q 175 -242 194 -224 q 111 -281 147 -269 q 50 -281 82 -289 q -21 -226 -1 -268 q -31 -182 -31 -206 q -19 -133 -31 -156 q -3 -110 -14 -119 q 21 -92 11 -96 q 94 -90 60 -74 q 119 -154 129 -108 q 117 -165 118 -160 q 82 -212 107 -197 l 78 -217 q 99 -219 78 -219 q 121 -197 111 -217 q 135 -139 129 -182 q 176 57 147 -67 l 200 158 l 269 519 q 206 521 269 521 q 132 531 138 521 q 136 563 129 535 q 147 594 143 592 l 151 599 l 218 599 q 285 601 285 599 q 297 665 288 604 l 315 749 q 415 928 343 874 q 476 961 443 947 q 536 976 508 974 q 551 978 542 978 m 1042 911 q 978 913 1003 915 q 906 879 922 906 q 868 760 888 853 l 836 600 q 976 599 836 599 l 1117 599 l 1144 713 q 1174 829 1174 832 q 1169 824 1174 831 q 1154 803 1167 819 q 1131 786 1139 790 q 1057 785 1092 768 q 1031 824 1035 799 q 1056 894 1024 860 l 1065 906 l 1058 907 l 1042 911 z "},"":{"ha":461,"x_min":-43,"x_max":461,"o":"m 303 611 q 328 614 314 614 q 424 578 388 614 q 458 519 447 556 q 461 485 461 510 l 461 461 l 393 186 q 319 -101 319 -103 q 256 -203 301 -154 q 115 -281 194 -264 q 75 -283 103 -283 q 36 -281 49 -283 q -35 -229 -15 -267 q -43 -190 -43 -211 q 11 -104 -43 -129 q 28 -99 19 -101 q 94 -115 68 -87 q 97 -193 121 -144 q 85 -212 93 -204 l 79 -219 l 89 -219 l 108 -215 q 192 -111 160 -196 q 194 -103 193 -107 l 338 465 q 342 483 342 481 q 339 535 346 519 q 319 549 333 547 q 267 531 294 551 q 179 408 214 496 q 169 389 172 392 q 136 386 167 386 l 106 386 l 101 390 q 97 399 97 394 q 131 475 97 417 q 136 483 133 479 q 176 536 157 515 q 303 611 233 600 z "},"":{"ha":710,"x_min":400,"x_max":611,"o":"m 456 965 q 493 965 478 971 q 517 947 508 960 l 611 735 q 563 694 611 726 q 542 694 550 686 q 421 850 525 708 q 404 874 406 871 q 400 896 400 882 q 406 921 400 910 q 456 965 419 951 z "},"":{"ha":710,"x_min":464,"x_max":772,"o":"m 694 967 l 711 968 l 713 968 q 735 963 728 967 q 761 897 772 943 q 742 868 754 878 q 533 703 743 869 q 511 690 518 690 l 504 692 l 503 692 l 468 729 q 483 758 464 738 q 563 843 497 774 q 664 950 665 951 q 694 967 676 961 z "},"":{"ha":710,"x_min":374,"x_max":751,"o":"m 403 871 q 428 892 422 892 q 494 844 435 892 q 551 803 550 804 q 629 844 551 800 q 719 892 715 892 q 736 875 728 892 q 740 865 738 871 q 751 839 747 851 q 747 828 751 832 q 640 760 746 824 q 528 694 536 694 q 519 700 526 694 l 378 832 q 390 858 374 840 q 403 871 394 861 z "},"":{"ha":710,"x_min":371,"x_max":803,"o":"m 388 960 q 414 964 392 964 q 446 956 440 964 q 444 938 447 951 q 446 871 439 897 q 461 838 453 849 q 521 796 481 807 q 581 796 544 790 q 679 853 636 811 q 735 940 718 892 q 749 963 740 961 q 769 964 753 964 q 801 954 797 964 q 800 938 803 950 q 758 847 788 892 q 576 713 688 736 q 497 713 536 704 q 378 842 401 733 q 376 929 371 875 q 388 960 382 956 z "},"":{"ha":710,"x_min":314,"x_max":786,"o":"m 333 815 q 556 818 336 818 q 781 814 776 818 q 783 808 782 814 q 779 778 786 804 q 768 746 774 751 l 764 742 l 544 742 q 321 744 325 742 q 315 751 317 749 q 319 781 314 757 q 333 815 328 814 z "},"":{"ha":639,"x_min":119,"x_max":486,"o":"m 296 -3 q 351 0 300 0 l 403 0 l 408 -4 q 410 -33 415 -12 q 407 -47 404 -47 l 415 -50 q 485 -118 472 -72 q 486 -142 486 -125 q 454 -215 483 -183 q 272 -281 407 -268 l 131 -283 q 119 -272 122 -279 q 129 -228 119 -257 q 160 -219 133 -219 q 188 -218 167 -218 q 317 -200 275 -217 q 361 -149 358 -183 q 346 -114 363 -128 q 290 -99 322 -99 q 278 -94 282 -99 q 278 -57 271 -89 q 281 -47 279 -53 l 290 -10 q 296 -3 292 -7 z "},"":{"ha":746,"x_min":-24,"x_max":801,"o":"m 571 978 q 638 978 608 981 q 775 908 729 967 q 799 857 790 889 q 801 821 801 847 q 799 782 801 793 q 774 714 790 750 q 671 561 743 653 q 626 501 639 524 q 633 425 607 467 q 665 381 643 407 l 690 346 q 725 263 717 306 q 722 190 731 226 q 667 81 707 132 q 611 28 643 49 q 549 -4 582 6 q 488 -14 515 -15 q 451 -11 463 -14 q 424 0 435 -6 q 396 21 408 8 q 376 46 383 33 q 365 99 365 68 q 368 128 365 119 q 431 186 381 179 q 485 160 468 193 q 488 126 493 144 q 457 81 481 94 l 450 76 l 453 72 q 476 54 460 60 q 508 51 490 49 q 567 149 542 63 q 581 221 581 194 q 579 247 581 240 q 551 299 572 271 q 522 353 529 329 q 513 417 513 382 q 519 481 513 446 q 594 593 531 525 q 617 621 606 606 q 669 764 643 658 l 678 797 l 678 822 q 675 858 678 847 q 615 913 657 907 q 540 908 581 918 q 483 879 500 901 q 444 767 463 854 q 381 439 436 735 q 315 108 321 133 q 247 -131 283 -53 q 154 -254 213 -211 q 103 -281 136 -268 q 0 -254 40 -299 q -12 -236 -7 -246 q -24 -186 -24 -214 q -12 -133 -24 -157 q 4 -110 -7 -119 q 28 -92 18 -96 q 101 -90 67 -74 q 128 -129 124 -104 q 99 -204 135 -169 q 88 -214 93 -210 q 82 -219 79 -219 q 125 -176 104 -219 q 186 78 144 -128 q 271 519 271 501 q 207 521 271 521 q 133 531 139 521 q 138 563 131 535 q 147 594 144 592 l 151 599 l 219 599 l 286 600 l 299 660 q 336 811 319 769 q 501 964 382 929 q 571 978 533 975 z "},"":{"ha":994,"x_min":103,"x_max":1018,"o":"m 632 613 q 682 601 663 621 q 694 572 694 592 l 696 564 l 704 569 q 790 604 753 596 q 942 597 878 626 q 1010 522 993 571 q 1013 464 1018 496 q 818 315 988 344 q 674 303 756 304 q 631 300 631 303 q 621 251 626 290 q 624 122 607 172 q 651 78 631 99 q 743 51 686 43 q 901 150 829 64 q 922 168 917 168 q 949 147 928 168 q 965 117 969 125 q 913 60 951 92 q 903 53 907 56 q 710 -15 813 -15 q 578 40 633 -15 l 567 51 l 565 42 q 513 -14 554 -3 q 461 -1 481 -21 q 451 29 451 13 q 450 39 451 39 l 440 32 q 317 -15 378 -15 q 167 32 226 -15 q 113 164 103 85 q 169 300 124 231 q 565 564 275 457 l 585 571 l 589 579 q 632 613 601 603 m 881 544 q 853 549 875 546 q 783 535 819 549 q 671 429 710 507 q 650 378 660 407 l 647 368 l 690 368 q 889 410 836 372 q 924 461 915 429 q 924 501 929 482 q 881 544 914 533 m 565 496 q 542 486 565 499 q 274 221 335 378 q 247 97 243 146 q 249 89 247 92 q 282 57 256 67 q 349 53 313 44 q 481 169 419 65 q 525 338 485 176 l 565 496 z "},"":{"ha":994,"x_min":122,"x_max":1013,"o":"m 450 632 l 478 633 l 479 633 q 513 629 507 631 q 621 536 586 610 l 631 518 l 638 525 q 850 614 735 610 q 917 606 886 615 q 1010 521 990 583 q 1013 489 1013 511 q 1010 454 1013 464 q 968 382 999 413 q 765 308 907 321 q 649 303 729 303 l 636 303 l 631 278 q 629 113 607 171 q 676 60 646 75 q 744 53 704 47 q 901 150 828 64 q 922 168 917 168 q 949 147 928 168 q 965 117 969 125 q 913 60 951 92 q 903 53 907 56 q 690 -14 801 -25 q 654 -7 672 -12 q 597 21 621 1 q 542 86 557 50 q 536 93 538 93 q 528 85 536 94 q 443 8 490 39 q 379 -24 411 -12 q 193 18 267 -60 q 133 164 142 74 q 199 433 122 297 q 224 474 210 454 q 425 626 310 597 l 450 632 m 479 567 q 381 522 431 575 q 307 369 339 479 q 289 301 299 340 q 261 88 249 135 q 263 81 261 83 q 351 35 286 15 q 456 136 413 56 q 497 249 478 179 q 528 372 522 339 q 533 511 546 464 q 479 567 518 558 m 881 544 q 799 540 844 556 q 672 422 713 513 l 653 368 l 728 369 q 846 388 804 374 q 924 461 908 408 q 924 501 929 482 q 881 544 914 533 z "},"":{"ha":710,"x_min":75,"x_max":779,"o":"m 728 753 q 758 746 735 760 q 776 735 776 738 q 779 725 779 732 q 721 642 779 721 l 663 563 l 671 551 q 715 372 722 478 q 592 88 704 211 q 447 -14 526 18 q 257 -12 343 -57 l 243 -6 l 188 -79 q 132 -154 136 -150 q 101 -149 124 -161 q 82 -119 75 -133 q 140 -40 83 -118 l 196 36 l 189 47 q 161 101 169 75 q 164 329 124 200 q 236 472 188 407 q 389 603 300 558 q 464 629 429 622 q 508 632 479 632 q 547 631 539 632 q 601 613 579 624 q 617 606 617 603 q 671 678 618 606 q 728 753 726 753 m 529 564 q 478 565 507 571 q 414 539 444 560 q 303 381 340 492 q 258 203 278 311 q 257 132 253 171 q 258 125 258 126 q 272 139 260 122 q 414 331 293 167 q 568 543 569 540 q 529 564 556 558 m 603 442 q 601 472 603 469 l 601 479 l 447 271 q 292 61 290 60 q 293 54 290 58 q 342 32 311 36 q 478 85 410 21 q 504 114 492 99 q 582 306 550 174 q 583 313 582 310 q 603 442 603 396 z "},"":{"ha":1065,"x_min":196,"x_max":1104,"o":"m 1053 1039 q 1061 1040 1058 1042 q 1082 1029 1063 1040 q 1104 1006 1104 1015 q 1056 940 1100 997 l 1007 878 l 1017 867 q 1053 808 1033 844 q 1092 679 1082 750 q 1093 575 1099 625 q 976 250 1081 403 q 693 6 864 79 q 614 -19 656 -11 q 356 18 464 -54 q 343 25 346 25 l 299 -32 q 242 -92 251 -92 l 201 -68 q 200 -53 196 -60 l 249 10 l 294 69 l 285 82 q 207 353 200 189 q 353 733 215 556 q 418 808 383 774 q 696 969 544 938 q 778 978 732 978 q 858 969 822 978 q 947 931 906 957 q 961 925 958 922 l 1006 982 q 1053 1039 1047 1038 m 790 913 q 635 882 713 921 q 442 678 514 822 q 361 424 399 589 q 346 196 328 281 l 358 153 l 633 504 l 906 854 l 900 861 q 790 913 860 901 m 949 781 q 943 794 943 793 l 669 444 l 396 94 l 403 86 q 471 46 429 60 q 697 81 578 10 q 765 133 733 103 q 911 403 860 228 q 957 607 943 517 q 949 781 971 711 z "},"":{"ha":356,"x_min":118,"x_max":489,"o":"m 471 544 q 479 544 475 546 q 489 507 489 531 q 479 471 489 475 l 129 389 l 121 393 l 118 397 l 118 426 l 118 457 l 121 461 q 296 504 124 464 q 471 544 467 544 z "},"":{"ha":710,"x_min":350,"x_max":778,"o":"m 439 926 q 494 921 471 933 q 526 882 518 908 q 500 789 542 835 q 467 765 485 774 q 372 776 408 739 q 356 804 361 788 q 356 846 350 828 q 400 910 364 883 q 439 926 424 924 m 688 928 q 769 894 743 939 q 775 882 772 889 q 778 857 778 874 q 772 828 776 838 q 708 763 754 783 q 621 775 654 740 q 608 793 613 783 q 611 867 592 828 q 688 928 635 914 z "}}}
